<?xml version="1.0" encoding="utf-8"?>
<!-- Generator: Adobe Illustrator 19.1.0, SVG Export Plug-In . SVG Version: 6.00 Build 0)  -->
<svg version="1.1" id="Layer_1" xmlns="http://www.w3.org/2000/svg" xmlns:xlink="http://www.w3.org/1999/xlink" x="0px" y="0px"
	 viewBox="0 0 595.3 841.9" style="enable-background:new 0 0 595.3 841.9;" xml:space="preserve">
<style type="text/css">
	.st0{fill:#A0A2A4;}
	.st1{fill:#FFFFFF;}
	.st2{fill:#0079C2;}
	.st3{opacity:0.3;}
	.st4{opacity:0.8;fill:#0079C2;}
	.st5{opacity:0.5;fill:#FFFFFF;}
</style>
<g>
	<path class="st0" d="M283.5,504c0.5,0.3,0.9,0.6,1.1,1c0.3,0.4,0.4,0.9,0.4,1.5c0,0.6-0.1,1.2-0.4,1.8c-0.3,0.6-0.7,1.2-1.4,1.9
		c-0.6,0.7-1.5,1.6-2.7,2.6h4.7l-0.2,1.3h-6.4v-1.3c1.3-1.2,2.3-2.2,2.9-2.9c0.6-0.7,1.1-1.3,1.3-1.8c0.3-0.5,0.4-1,0.4-1.5
		c0-0.5-0.1-0.9-0.4-1.2c-0.3-0.3-0.7-0.4-1.2-0.4c-0.4,0-0.8,0.1-1.1,0.2c-0.3,0.2-0.6,0.4-0.9,0.8l-1.1-0.8
		c0.4-0.5,0.9-0.9,1.4-1.2c0.5-0.3,1.2-0.4,1.9-0.4C282.5,503.6,283,503.7,283.5,504z"/>
	<path class="st0" d="M293.7,505c0.6,0.9,0.9,2.2,0.9,4c0,1.7-0.3,3-0.9,4c-0.6,0.9-1.5,1.4-2.6,1.4c-1.1,0-2-0.5-2.6-1.4
		c-0.6-0.9-0.9-2.2-0.9-4c0-1.7,0.3-3,0.9-4c0.6-0.9,1.5-1.4,2.6-1.4C292.3,503.6,293.2,504.1,293.7,505z M289.8,505.9
		c-0.3,0.6-0.5,1.7-0.5,3.1c0,1.4,0.2,2.5,0.5,3.1c0.3,0.6,0.8,1,1.4,1c0.6,0,1-0.3,1.4-1c0.3-0.6,0.5-1.7,0.5-3.1
		c0-1.4-0.2-2.5-0.5-3.1c-0.3-0.6-0.8-1-1.4-1C290.5,504.9,290.1,505.2,289.8,505.9z M291.8,508.3c0.2,0.2,0.3,0.4,0.3,0.7
		c0,0.3-0.1,0.5-0.3,0.7c-0.2,0.2-0.4,0.3-0.7,0.3c-0.3,0-0.5-0.1-0.7-0.3c-0.2-0.2-0.3-0.4-0.3-0.7c0-0.3,0.1-0.5,0.3-0.7
		c0.2-0.2,0.4-0.3,0.7-0.3C291.4,508,291.7,508.1,291.8,508.3z"/>
	<path class="st1" d="M301.4,504c0.5,0.3,0.9,0.6,1.1,1c0.3,0.4,0.4,0.9,0.4,1.5c0,0.6-0.1,1.2-0.4,1.8c-0.3,0.6-0.7,1.2-1.4,1.9
		c-0.6,0.7-1.5,1.6-2.7,2.6h4.7l-0.2,1.3h-6.4v-1.3c1.3-1.2,2.3-2.2,2.9-2.9c0.6-0.7,1.1-1.3,1.3-1.8c0.3-0.5,0.4-1,0.4-1.5
		c0-0.5-0.1-0.9-0.4-1.2c-0.3-0.3-0.7-0.4-1.2-0.4c-0.4,0-0.8,0.1-1.1,0.2c-0.3,0.2-0.6,0.4-0.9,0.8l-1.1-0.8
		c0.4-0.5,0.9-0.9,1.4-1.2c0.5-0.3,1.2-0.4,1.9-0.4C300.3,503.6,300.9,503.7,301.4,504z"/>
	<path class="st1" d="M311.6,505c0.6,0.9,0.9,2.2,0.9,4c0,1.7-0.3,3-0.9,4c-0.6,0.9-1.5,1.4-2.6,1.4s-2-0.5-2.6-1.4
		c-0.6-0.9-0.9-2.2-0.9-4c0-1.7,0.3-3,0.9-4c0.6-0.9,1.5-1.4,2.6-1.4S311.1,504.1,311.6,505z M307.7,505.9c-0.3,0.6-0.5,1.7-0.5,3.1
		c0,1.4,0.2,2.5,0.5,3.1c0.3,0.6,0.8,1,1.4,1c0.6,0,1-0.3,1.4-1c0.3-0.6,0.5-1.7,0.5-3.1c0-1.4-0.2-2.5-0.5-3.1
		c-0.3-0.6-0.8-1-1.4-1C308.4,504.9,308,505.2,307.7,505.9z M309.7,508.3c0.2,0.2,0.3,0.4,0.3,0.7c0,0.3-0.1,0.5-0.3,0.7
		c-0.2,0.2-0.4,0.3-0.7,0.3c-0.3,0-0.5-0.1-0.7-0.3c-0.2-0.2-0.3-0.4-0.3-0.7c0-0.3,0.1-0.5,0.3-0.7c0.2-0.2,0.4-0.3,0.7-0.3
		C309.3,508,309.5,508.1,309.7,508.3z"/>
	<circle class="st1" cx="350.2" cy="396" r="66.2"/>
	<path class="st2" d="M350.2,464.6c-37.8,0-68.5-30.7-68.5-68.5s30.7-68.5,68.5-68.5s68.5,30.7,68.5,68.5S388,464.6,350.2,464.6z
		 M350.2,332.1c-35.3,0-63.9,28.7-63.9,63.9S315,460,350.2,460s63.9-28.7,63.9-63.9S385.5,332.1,350.2,332.1z"/>
	<path class="st2" d="M245.1,328.2c-37.4,0-67.8,30.4-67.8,67.8s30.4,67.8,67.8,67.8s67.8-30.4,67.8-67.8S282.4,328.2,245.1,328.2z"
		/>
	<g class="st3">
		<g>
			<path class="st1" d="M302.8,444.4c-0.4-0.4-0.7-0.7-1.1-1.1c-12.4-12.7-19.2-29.5-19.2-47.3c0-18.1,7-35.1,19.8-47.9l2.2,2.2
				c-12.2,12.2-19,28.5-19,45.8c0,17,6.5,33,18.4,45.2c0.3,0.3,0.7,0.7,1.1,1.1L302.8,444.4z"/>
		</g>
	</g>
	<g class="st3">
		<g>
			<path class="st1" d="M294.4,363.4l-2.6-1.5c0.3-0.4,0.5-0.9,0.8-1.3c9.3-15.1,23.9-25.9,41.2-30.2c17.6-4.4,35.8-1.7,51.3,7.6
				l-1.6,2.6c-14.8-8.9-32.2-11.4-49-7.2c-16.5,4.1-30.4,14.4-39.3,28.8C294.9,362.5,294.6,362.9,294.4,363.4z"/>
		</g>
	</g>
	<g class="st3">
		<g>
			<path class="st1" d="M411.5,375.1c-5.6-16.4-17.2-29.6-32.7-37.2c-15.2-7.5-32.5-8.7-48.6-3.5c-0.5,0.2-0.9,0.3-1.4,0.5l-1-2.9
				c0.5-0.2,1-0.3,1.5-0.5c16.9-5.5,35-4.2,50.9,3.6c16.2,8,28.4,21.8,34.2,39L411.5,375.1z"/>
		</g>
	</g>
	<g class="st3">
		<g>
			<path class="st1" d="M417.5,404.4l-3-0.4c2.1-17.1-2.5-34.1-13.1-47.8c-10.4-13.4-25.4-22-42.2-24.4c-0.5-0.1-1-0.1-1.5-0.2
				l0.3-3c0.5,0.1,1,0.1,1.5,0.2c17.6,2.4,33.3,11.5,44.2,25.5C414.9,368.7,419.7,386.5,417.5,404.4z"/>
		</g>
	</g>
	<g class="st3">
		<g>
			<path class="st1" d="M350.2,463.8c-8.6,0-17.2-1.7-25.4-5c-16.8-6.8-29.9-19.7-37-36.4l2.8-1.2c6.8,15.9,19.3,28.2,35.3,34.7
				c15.7,6.4,33,6.3,48.7-0.1c0.5-0.2,0.9-0.4,1.4-0.6l1.2,2.8c-0.5,0.2-1,0.4-1.4,0.6C367.6,462.1,358.9,463.8,350.2,463.8z"/>
		</g>
	</g>
	<g class="st3">
		<g>
			<path class="st1" d="M355.4,463.6l-0.2-3.1c17.2-1.3,32.9-9.3,44.2-22.4c11-12.9,16.5-29.3,15.5-46.2c0-0.5-0.1-1-0.1-1.5l3-0.3
				c0,0.5,0.1,1,0.1,1.6c1.1,17.7-4.6,34.9-16.2,48.4C389.9,453.9,373.5,462.2,355.4,463.6z"/>
		</g>
	</g>
	<g class="st3">
		<g>
			<path class="st1" d="M245,462.5c-9.8,0-19.5-2.2-28.5-6.5c-16-7.6-28.1-21-34.1-37.8l2.9-1c5.7,16,17.2,28.8,32.5,36
				c15,7.1,31.9,8.1,47.7,2.8c0.5-0.2,0.9-0.3,1.4-0.5l1.1,2.9c-0.5,0.2-1,0.3-1.4,0.5C259.5,461.3,252.2,462.5,245,462.5z"/>
		</g>
	</g>
	<g class="st3">
		<g>
			<path class="st1" d="M190.1,433.4c-0.3-0.4-0.6-0.8-0.8-1.3c-9.5-14.6-12.8-32.1-9.4-49.2c3.5-17.4,13.5-32.4,28.3-42.3l1.7,2.5
				c-14.1,9.4-23.7,23.7-27,40.3c-3.3,16.3-0.1,33,8.9,46.9c0.3,0.4,0.5,0.8,0.8,1.2L190.1,433.4z"/>
		</g>
	</g>
	<g class="st3">
		<g>
			<path class="st1" d="M182,389.3l-3-0.3c0.1-0.5,0.1-1,0.2-1.5c2.2-17.3,11-32.8,24.7-43.6c13.9-11,31.3-16,48.9-13.9l-0.4,3
				c-16.8-2-33.4,2.8-46.7,13.3c-13,10.3-21.4,25.1-23.5,41.6C182.1,388.3,182.1,388.8,182,389.3z"/>
		</g>
	</g>
	<g class="st3">
		<g>
			<path class="st1" d="M191.3,362.4l-2.6-1.6c0.3-0.4,0.5-0.9,0.8-1.3c9.6-14.6,24.2-24.6,41.2-28.4c17.3-3.8,35.1-0.7,50.1,8.9
				l-1.6,2.6c-14.3-9.1-31.2-12.1-47.8-8.5c-16.2,3.6-30.2,13.2-39.3,27.1C191.8,361.6,191.6,362,191.3,362.4z"/>
		</g>
	</g>
	<g class="st3">
		<g>
			<path class="st1" d="M245.1,462.5c-1,0-1.9,0-2.9-0.1l0.1-3.1c16.9,0.7,33.1-5.2,45.6-16.6c12.2-11.2,19.5-26.6,20.4-43.2
				c0-0.5,0-1,0.1-1.4l3.1,0.1c0,0.5,0,1-0.1,1.5c-1,17.4-8.6,33.5-21.4,45.2C277.6,456.3,261.8,462.5,245.1,462.5z"/>
		</g>
	</g>
	<g class="st3">
		<g>
			<path class="st1" d="M307.1,419.9l-2.9-1.1c6.1-15.8,5.7-33-1.2-48.5c-6.7-15.2-18.9-27-34.4-33.1c-0.4-0.2-0.9-0.4-1.4-0.5
				l1.1-2.9c0.5,0.2,1,0.4,1.4,0.5c16.2,6.5,29,18.8,36,34.7C313,385.3,313.5,403.4,307.1,419.9z"/>
		</g>
	</g>
	<path class="st4" d="M383.7,364.9c0-4.3-3.5-7.8-7.8-7.8h-51.3c-4.3,0-7.8,3.5-7.8,7.8c0,4.3,3.5,7.8,7.8,7.8h51.3
		C380.2,372.7,383.7,369.2,383.7,364.9z M319.2,364.9c0-2.9,2.3-5.2,5.2-5.2c2.9,0,5.2,2.3,5.2,5.2c0,2.8-2.3,5.2-5.2,5.2
		C321.5,370,319.2,367.7,319.2,364.9z M370.7,364.9c0-2.9,2.3-5.2,5.2-5.2c2.8,0,5.2,2.3,5.2,5.2c0,2.8-2.3,5.2-5.2,5.2
		C373,370,370.7,367.7,370.7,364.9z"/>
	<path class="st4" d="M383.7,426.7c0-4.3-3.5-7.8-7.8-7.8h-51.3c-4.3,0-7.8,3.5-7.8,7.8c0,4.3,3.5,7.8,7.8,7.8h51.3
		C380.2,434.5,383.7,431,383.7,426.7z M319.2,426.7c0-2.9,2.3-5.2,5.2-5.2c2.9,0,5.2,2.3,5.2,5.2c0,2.8-2.3,5.2-5.2,5.2
		C321.5,431.9,319.2,429.6,319.2,426.7z M370.7,426.7c0-2.9,2.3-5.2,5.2-5.2c2.8,0,5.2,2.3,5.2,5.2c0,2.8-2.3,5.2-5.2,5.2
		C373,431.9,370.7,429.6,370.7,426.7z"/>
	<path class="st4" d="M381.4,359.4c-3-3-8-3-11,0l-51.3,61.8c-3,3-3,8,0,11c3,3,8,3,11,0l51.3-61.8
		C384.4,367.3,384.4,362.4,381.4,359.4z M320.8,430.5c-2-2-2-5.3,0-7.3c2-2,5.3-2,7.3,0c2,2,2,5.3,0,7.3
		C326,432.6,322.8,432.6,320.8,430.5z M372.2,368.6c-2-2-2-5.3,0-7.3c2-2,5.3-2,7.3,0c2,2,2,5.3,0,7.3
		C377.5,370.6,374.3,370.6,372.2,368.6z"/>
	<g>
		<path class="st5" d="M215.4,356.9c-4.3,0-7.8,3.5-7.8,7.8v61.9c0,4.3,3.5,7.8,7.8,7.8c4.3,0,7.8-3.5,7.8-7.8v-61.9
			C223.2,360.4,219.7,356.9,215.4,356.9z M215.4,431.9c-2.8,0-5.2-2.3-5.2-5.2c0-2.9,2.3-5.2,5.2-5.2c2.8,0,5.2,2.3,5.2,5.2
			C220.6,429.6,218.3,431.9,215.4,431.9z M215.4,369.9c-2.8,0-5.2-2.3-5.2-5.2c0-2.8,2.3-5.2,5.2-5.2c2.8,0,5.2,2.3,5.2,5.2
			C220.6,367.6,218.3,369.9,215.4,369.9z"/>
		<path class="st5" d="M210,359.4c-3,3-3,8,0,11l31,31c3,3,8,3,11,0c3-3,3-8,0-11l-31-31C217.9,356.4,213,356.4,210,359.4z
			 M250.2,399.7c-2,2-5.3,2-7.3,0c-2-2-2-5.3,0-7.3c2-2,5.3-2,7.3,0C252.2,394.4,252.2,397.6,250.2,399.7z M219.1,368.6
			c-2,2-5.3,2-7.3,0c-2-2-2-5.3,0-7.3c2-2,5.3-2,7.3,0C221.1,363.3,221.1,366.5,219.1,368.6z"/>
		<path class="st5" d="M283.2,359.4c-3-3-8-3-11,0l-31,31c-3,3-3,8,0,11c3,3,8,3,11,0l31-31C286.3,367.3,286.3,362.4,283.2,359.4z
			 M243,399.7c-2-2-2-5.3,0-7.3c2-2,5.3-2,7.3,0c2,2,2,5.3,0,7.3C248.3,401.7,245,401.7,243,399.7z M274.1,368.6c-2-2-2-5.3,0-7.3
			c2-2,5.3-2,7.3,0c2,2,2,5.3,0,7.3C279.3,370.6,276.1,370.6,274.1,368.6z"/>
		<path class="st5" d="M277.7,357.1c-4.3,0-7.8,3.5-7.8,7.8v61.8c0,4.3,3.5,7.8,7.8,7.8c4.3,0,7.8-3.5,7.8-7.8v-61.8
			C285.5,360.6,282,357.1,277.7,357.1z M277.7,432.1c-2.9,0-5.2-2.3-5.2-5.2c0-2.9,2.3-5.2,5.2-5.2c2.8,0,5.2,2.3,5.2,5.2
			C282.9,429.8,280.6,432.1,277.7,432.1z M277.7,370.1c-2.9,0-5.2-2.3-5.2-5.2c0-2.9,2.3-5.2,5.2-5.2c2.8,0,5.2,2.3,5.2,5.2
			C282.9,367.8,280.6,370.1,277.7,370.1z"/>
	</g>
	<g>
		<g>
			<path class="st1" d="M375.9,373.2h-51.3c-4.6,0-8.3-3.7-8.3-8.3s3.7-8.3,8.3-8.3h51.3c4.6,0,8.3,3.7,8.3,8.3
				S380.5,373.2,375.9,373.2z M324.6,357.7c-4,0-7.2,3.2-7.2,7.2c0,4,3.2,7.2,7.2,7.2h51.3c4,0,7.2-3.2,7.2-7.2c0-4-3.2-7.2-7.2-7.2
				H324.6z M375.9,370.6c-3.2,0-5.7-2.6-5.7-5.7c0-3.2,2.6-5.7,5.7-5.7c3.2,0,5.7,2.6,5.7,5.7C381.6,368,379,370.6,375.9,370.6z
				 M375.9,360.3c-2.5,0-4.6,2.1-4.6,4.6c0,2.5,2.1,4.6,4.6,4.6c2.5,0,4.6-2.1,4.6-4.6C380.5,362.4,378.4,360.3,375.9,360.3z
				 M324.3,370.6c-3.2,0-5.7-2.6-5.7-5.7c0-3.2,2.6-5.7,5.7-5.7c3.2,0,5.7,2.6,5.7,5.7C330.1,368,327.5,370.6,324.3,370.6z
				 M324.3,360.3c-2.5,0-4.6,2.1-4.6,4.6c0,2.5,2.1,4.6,4.6,4.6c2.5,0,4.6-2.1,4.6-4.6C328.9,362.4,326.9,360.3,324.3,360.3z"/>
		</g>
	</g>
	<g>
		<g>
			<path class="st1" d="M375.9,435.1h-51.3c-4.6,0-8.3-3.7-8.3-8.3c0-4.6,3.7-8.3,8.3-8.3h51.3c4.6,0,8.3,3.7,8.3,8.3
				C384.3,431.3,380.5,435.1,375.9,435.1z M324.6,419.5c-4,0-7.2,3.2-7.2,7.2c0,4,3.2,7.2,7.2,7.2h51.3c4,0,7.2-3.2,7.2-7.2
				c0-4-3.2-7.2-7.2-7.2H324.6z M375.9,432.5c-3.2,0-5.7-2.6-5.7-5.7c0-3.2,2.6-5.7,5.7-5.7c3.2,0,5.7,2.6,5.7,5.7
				C381.6,429.9,379,432.5,375.9,432.5z M375.9,422.1c-2.5,0-4.6,2.1-4.6,4.6c0,2.5,2.1,4.6,4.6,4.6c2.5,0,4.6-2.1,4.6-4.6
				C380.5,424.2,378.4,422.1,375.9,422.1z M324.3,432.5c-3.2,0-5.7-2.6-5.7-5.7c0-3.2,2.6-5.7,5.7-5.7c3.2,0,5.7,2.6,5.7,5.7
				C330.1,429.9,327.5,432.5,324.3,432.5z M324.3,422.1c-2.5,0-4.6,2.1-4.6,4.6c0,2.5,2.1,4.6,4.6,4.6c2.5,0,4.6-2.1,4.6-4.6
				C328.9,424.2,326.9,422.1,324.3,422.1z"/>
		</g>
	</g>
	<g>
		<g>
			<path class="st1" d="M324.6,435.1c-2.2,0-4.3-0.9-5.9-2.4c-3.3-3.3-3.3-8.5,0-11.8L370,359c1.6-1.6,3.7-2.5,5.9-2.5
				c2.2,0,4.3,0.9,5.9,2.4c1.6,1.6,2.4,3.7,2.4,5.9c0,2.2-0.9,4.3-2.4,5.9l-51.3,61.8C328.9,434.2,326.8,435.1,324.6,435.1z
				 M375.9,357.7c-1.9,0-3.7,0.7-5.1,2.1l-51.3,61.8c-2.8,2.8-2.8,7.4,0,10.2c1.4,1.4,3.2,2.1,5.1,2.1c1.9,0,3.7-0.7,5.1-2.1
				L381,370c1.4-1.4,2.1-3.2,2.1-5.1c0-1.9-0.7-3.7-2.1-5.1C379.6,358.4,377.8,357.7,375.9,357.7z M324.4,432.6
				c-1.5,0-3-0.6-4.1-1.7c-1.1-1.1-1.7-2.5-1.7-4.1c0-1.5,0.6-3,1.7-4.1c1.1-1.1,2.5-1.7,4.1-1.7c1.5,0,3,0.6,4.1,1.7
				c1.1,1.1,1.7,2.5,1.7,4.1c0,1.5-0.6,3-1.7,4.1C327.4,432,325.9,432.6,324.4,432.6z M324.4,422.3c-1.2,0-2.4,0.5-3.2,1.3
				c-0.9,0.9-1.3,2-1.3,3.2c0,1.2,0.5,2.4,1.3,3.2c1.7,1.7,4.8,1.7,6.5,0c0.9-0.9,1.3-2,1.3-3.2c0-1.2-0.5-2.4-1.3-3.2
				C326.8,422.8,325.6,422.3,324.4,422.3z M375.9,370.6c-1.5,0-3-0.6-4.1-1.7c-2.2-2.2-2.2-5.9,0-8.1c2.2-2.2,5.9-2.2,8.1,0
				c2.2,2.2,2.2,5.9,0,8.1C378.9,370,377.4,370.6,375.9,370.6z M375.9,360.3c-1.2,0-2.4,0.5-3.2,1.3c-1.8,1.8-1.8,4.7,0,6.5
				c1.7,1.7,4.8,1.7,6.5,0c1.8-1.8,1.8-4.7,0-6.5C378.3,360.8,377.1,360.3,375.9,360.3z"/>
		</g>
	</g>
	<g>
		<g>
			<path class="st1" d="M215.4,434.7c-4.5,0-8.2-3.7-8.2-8.2v-61.9c0-4.5,3.7-8.2,8.2-8.2c4.5,0,8.2,3.7,8.2,8.2v61.9
				C223.6,431.1,219.9,434.7,215.4,434.7z M215.4,357.3c-4.1,0-7.4,3.3-7.4,7.4v61.9c0,4.1,3.3,7.4,7.4,7.4c4.1,0,7.4-3.3,7.4-7.4
				v-61.9C222.8,360.6,219.5,357.3,215.4,357.3z M215.4,432.3c-3.1,0-5.5-2.5-5.5-5.5c0-3.1,2.5-5.5,5.5-5.5c3.1,0,5.5,2.5,5.5,5.5
				C221,429.8,218.5,432.3,215.4,432.3z M215.4,422c-2.6,0-4.8,2.1-4.8,4.8c0,2.6,2.1,4.8,4.8,4.8c2.6,0,4.8-2.1,4.8-4.8
				C220.2,424.1,218.1,422,215.4,422z M215.4,370.3c-3.1,0-5.5-2.5-5.5-5.5c0-3.1,2.5-5.5,5.5-5.5c3.1,0,5.5,2.5,5.5,5.5
				C221,367.8,218.5,370.3,215.4,370.3z M215.4,360c-2.6,0-4.8,2.1-4.8,4.8c0,2.6,2.1,4.8,4.8,4.8c2.6,0,4.8-2.1,4.8-4.8
				C220.2,362.1,218.1,360,215.4,360z"/>
		</g>
	</g>
	<g>
		<g>
			<path class="st1" d="M246.4,404c-2.2,0-4.2-0.8-5.8-2.4l-31-31c-1.5-1.5-2.4-3.6-2.4-5.8c0-2.2,0.8-4.2,2.4-5.8
				c1.5-1.5,3.6-2.4,5.8-2.4c2.2,0,4.2,0.8,5.8,2.4l31,31c1.5,1.5,2.4,3.6,2.4,5.8c0,2.2-0.8,4.2-2.4,5.8
				C250.6,403.2,248.6,404,246.4,404z M215.4,357.5c-2,0-3.8,0.8-5.2,2.2c-1.4,1.4-2.2,3.3-2.2,5.2c0,2,0.8,3.8,2.2,5.2l31,31
				c1.4,1.4,3.3,2.2,5.2,2.2c2,0,3.8-0.8,5.2-2.2c1.4-1.4,2.2-3.3,2.2-5.2c0-2-0.8-3.8-2.2-5.2l-31-31
				C219.3,358.3,217.4,357.5,215.4,357.5z M246.6,401.6c-1.5,0-2.9-0.6-3.9-1.6c-2.2-2.2-2.2-5.7,0-7.8c1-1,2.4-1.6,3.9-1.6
				c1.5,0,2.9,0.6,3.9,1.6c2.2,2.2,2.2,5.7,0,7.8C249.4,401,248.1,401.6,246.6,401.6z M246.6,391.2c-1.3,0-2.5,0.5-3.4,1.4
				c-1.9,1.9-1.9,4.9,0,6.8c0.9,0.9,2.1,1.4,3.4,1.4c1.3,0,2.5-0.5,3.4-1.4c1.9-1.9,1.9-4.9,0-6.8
				C249.1,391.7,247.9,391.2,246.6,391.2z M215.5,370.5c-1.5,0-2.9-0.6-3.9-1.6c-2.2-2.2-2.2-5.7,0-7.8c1-1,2.4-1.6,3.9-1.6
				c1.5,0,2.9,0.6,3.9,1.6c2.2,2.2,2.2,5.7,0,7.8C218.4,369.9,217,370.5,215.5,370.5z M215.5,360.1c-1.3,0-2.5,0.5-3.4,1.4
				c-1.9,1.9-1.9,4.9,0,6.8c0.9,0.9,2.1,1.4,3.4,1.4c1.3,0,2.5-0.5,3.4-1.4c1.9-1.9,1.9-4.9,0-6.8
				C218,360.6,216.8,360.1,215.5,360.1z"/>
		</g>
	</g>
	<g>
		<g>
			<path class="st1" d="M246.8,404c-2.2,0-4.2-0.8-5.8-2.4c-1.5-1.5-2.4-3.6-2.4-5.8c0-2.2,0.8-4.2,2.4-5.8l31-31
				c1.5-1.5,3.6-2.4,5.8-2.4c2.2,0,4.2,0.8,5.8,2.4c1.5,1.5,2.4,3.6,2.4,5.8c0,2.2-0.8,4.2-2.4,5.8l-31,31
				C251,403.2,249,404,246.8,404z M277.7,357.5c-2,0-3.8,0.8-5.2,2.2l-31,31c-1.4,1.4-2.2,3.3-2.2,5.2c0,2,0.8,3.8,2.2,5.2
				c1.4,1.4,3.3,2.2,5.2,2.2c2,0,3.8-0.8,5.2-2.2l31-31c1.4-1.4,2.2-3.3,2.2-5.2c0-2-0.8-3.8-2.2-5.2
				C281.6,358.3,279.7,357.5,277.7,357.5z M246.6,401.6c-1.5,0-2.9-0.6-3.9-1.6c-2.2-2.2-2.2-5.7,0-7.8c1-1,2.4-1.6,3.9-1.6
				c1.5,0,2.9,0.6,3.9,1.6c2.2,2.2,2.2,5.7,0,7.8C249.5,401,248.1,401.6,246.6,401.6z M246.6,391.2c-1.3,0-2.5,0.5-3.4,1.4
				c-1.9,1.9-1.9,4.9,0,6.8c0.9,0.9,2.1,1.4,3.4,1.4s2.5-0.5,3.4-1.4c1.9-1.9,1.9-4.9,0-6.8C249.1,391.7,247.9,391.2,246.6,391.2z
				 M277.7,370.5c-1.5,0-2.9-0.6-3.9-1.6c-2.2-2.2-2.2-5.7,0-7.8c1-1,2.4-1.6,3.9-1.6s2.9,0.6,3.9,1.6c2.2,2.2,2.2,5.7,0,7.8
				C280.6,369.9,279.2,370.5,277.7,370.5z M277.7,360.1c-1.3,0-2.5,0.5-3.4,1.4c-1.9,1.9-1.9,4.9,0,6.8c0.9,0.9,2.1,1.4,3.4,1.4
				s2.5-0.5,3.4-1.4c1.9-1.9,1.9-4.9,0-6.8C280.2,360.6,279,360.1,277.7,360.1z"/>
		</g>
	</g>
	<g>
		<g>
			<path class="st1" d="M277.7,434.9c-4.5,0-8.2-3.7-8.2-8.2v-61.8c0-4.5,3.7-8.2,8.2-8.2c4.5,0,8.2,3.7,8.2,8.2v61.8
				C285.9,431.2,282.2,434.9,277.7,434.9z M277.7,357.5c-4.1,0-7.4,3.3-7.4,7.4v61.8c0,4.1,3.3,7.4,7.4,7.4c4.1,0,7.4-3.3,7.4-7.4
				v-61.8C285.1,360.8,281.8,357.5,277.7,357.5z M277.7,432.5c-3.1,0-5.5-2.5-5.5-5.5c0-3.1,2.5-5.5,5.5-5.5c3.1,0,5.5,2.5,5.5,5.5
				C283.3,430,280.8,432.5,277.7,432.5z M277.7,422.2c-2.6,0-4.8,2.1-4.8,4.8c0,2.6,2.1,4.8,4.8,4.8c2.6,0,4.8-2.1,4.8-4.8
				C282.5,424.3,280.4,422.2,277.7,422.2z M277.7,370.5c-3.1,0-5.5-2.5-5.5-5.5c0-3.1,2.5-5.5,5.5-5.5c3.1,0,5.5,2.5,5.5,5.5
				C283.3,368,280.8,370.5,277.7,370.5z M277.7,360.1c-2.6,0-4.8,2.1-4.8,4.8c0,2.6,2.1,4.8,4.8,4.8c2.6,0,4.8-2.1,4.8-4.8
				C282.5,362.3,280.4,360.1,277.7,360.1z"/>
		</g>
	</g>
	<g>
		<path class="st1" d="M207.3,497.8v-20.9c0-0.2,0-0.4,0.1-0.6c0.1-0.2,0.2-0.4,0.3-0.5c0.1-0.1,0.3-0.3,0.5-0.3
			c0.2-0.1,0.4-0.1,0.6-0.1c0.6,0,1.1,0.3,1.4,0.9l9,18l9-18c0.4-0.6,0.8-0.9,1.4-0.9c0.2,0,0.4,0,0.6,0.1c0.2,0.1,0.4,0.2,0.5,0.3
			c0.1,0.1,0.3,0.3,0.3,0.5c0.1,0.2,0.1,0.4,0.1,0.6v20.9c0,0.4-0.2,0.8-0.5,1.1c-0.3,0.3-0.7,0.5-1.1,0.5c-0.4,0-0.8-0.2-1.1-0.5
			c-0.3-0.3-0.5-0.7-0.5-1.1v-14.1l-7.5,14.9c-0.3,0.5-0.8,0.8-1.4,0.8c-0.7,0-1.1-0.3-1.5-1l-7.4-14.8v14.1c0,0.4-0.2,0.8-0.5,1.1
			c-0.3,0.3-0.7,0.5-1.1,0.5c-0.4,0-0.8-0.2-1.1-0.5C207.4,498.6,207.3,498.2,207.3,497.8z"/>
		<path class="st1" d="M232.7,497.1l8-20.7c0.3-0.7,0.8-1.1,1.5-1.1c0.7,0,1.2,0.4,1.5,1.1l8.1,20.8c0.1,0.2,0.1,0.4,0.1,0.6
			c0,0.4-0.2,0.8-0.5,1.1c-0.3,0.3-0.7,0.5-1.1,0.5c-0.4,0-0.8-0.2-1.1-0.5c-0.2-0.2-0.3-0.3-0.4-0.5l-2.8-7.2h-7.7l-2.8,7.2
			c-0.1,0.2-0.2,0.4-0.4,0.5c-0.3,0.3-0.7,0.5-1.1,0.5c-0.4,0-0.8-0.2-1.1-0.5c-0.3-0.3-0.5-0.7-0.5-1.1
			C232.5,497.6,232.6,497.3,232.7,497.1z M244.9,488.1l-2.6-6.8l-2.6,6.8H244.9z"/>
		<path class="st1" d="M252.9,476.9c0-0.4,0.2-0.8,0.5-1.1c0.3-0.3,0.7-0.5,1.1-0.5s0.8,0.2,1.1,0.5c0.3,0.3,0.5,0.7,0.5,1.1v8.9
			l10-10c0.3-0.3,0.7-0.5,1.2-0.5c0.2,0,0.4,0,0.6,0.1c0.2,0.1,0.4,0.2,0.5,0.3c0.1,0.1,0.3,0.3,0.3,0.5c0.1,0.2,0.1,0.4,0.1,0.6
			c0,0.4-0.2,0.8-0.5,1.1l-7.9,7.9l8.1,10.9c0.2,0.3,0.3,0.6,0.3,0.9c0,0.2,0,0.4-0.1,0.6c-0.1,0.2-0.2,0.4-0.3,0.5
			c-0.1,0.1-0.3,0.3-0.5,0.4c-0.2,0.1-0.4,0.1-0.6,0.1c-0.6,0-1-0.2-1.3-0.7l-7.7-10.5l-2.1,2.1v7.5c0,0.4-0.2,0.8-0.5,1.1
			c-0.3,0.3-0.7,0.5-1.1,0.5s-0.8-0.2-1.1-0.5c-0.3-0.3-0.5-0.7-0.5-1.1V476.9z"/>
		<path class="st1" d="M285.3,496.2c0.4,0,0.8,0.2,1.1,0.5c0.3,0.3,0.5,0.7,0.5,1.1c0,0.4-0.2,0.8-0.5,1.1c-0.3,0.3-0.7,0.5-1.1,0.5
			h-13.9c-0.2,0-0.4,0-0.6-0.1c-0.2-0.1-0.4-0.2-0.5-0.3c-0.1-0.1-0.3-0.3-0.3-0.5c-0.1-0.2-0.1-0.4-0.1-0.6v-20.9
			c0-0.2,0-0.4,0.1-0.6c0.1-0.2,0.2-0.4,0.3-0.5c0.1-0.1,0.3-0.3,0.5-0.3c0.2-0.1,0.4-0.1,0.6-0.1h13.9c0.4,0,0.8,0.2,1.1,0.5
			c0.3,0.3,0.5,0.7,0.5,1.1c0,0.4-0.2,0.8-0.5,1.1c-0.3,0.3-0.7,0.5-1.1,0.5H273v7.3h8.8c0.4,0,0.8,0.2,1.1,0.5
			c0.3,0.3,0.5,0.7,0.5,1.1c0,0.4-0.2,0.8-0.5,1.1c-0.3,0.3-0.7,0.5-1.1,0.5H273v7.3H285.3z"/>
	</g>
	<g>
		<path class="st0" d="M286.1,475.3h16.3c0.2,0,0.4,0,0.6,0.1c0.2,0.1,0.4,0.2,0.5,0.3c0.1,0.1,0.3,0.3,0.3,0.5
			c0.1,0.2,0.1,0.4,0.1,0.6c0,0.3-0.1,0.6-0.3,0.9l-14.3,18.4h13c0.4,0,0.8,0.2,1.1,0.5c0.3,0.3,0.5,0.7,0.5,1.1
			c0,0.4-0.2,0.8-0.5,1.1c-0.3,0.3-0.7,0.5-1.1,0.5h-16.3c-0.2,0-0.4,0-0.6-0.1c-0.2-0.1-0.4-0.2-0.5-0.3c-0.1-0.1-0.3-0.3-0.3-0.5
			c-0.1-0.2-0.1-0.4-0.1-0.6c0-0.4,0.1-0.7,0.3-1l14.3-18.3h-13c-0.4,0-0.8-0.2-1.1-0.5c-0.3-0.3-0.5-0.7-0.5-1.1
			c0-0.4,0.2-0.8,0.5-1.1C285.3,475.5,285.7,475.3,286.1,475.3z"/>
		<path class="st0" d="M308.1,476.9v13.9c0,0.7,0.1,1.4,0.4,2.1c0.3,0.7,0.7,1.2,1.1,1.7c0.5,0.5,1,0.9,1.7,1.2
			c0.7,0.3,1.4,0.4,2.1,0.4c0.7,0,1.4-0.1,2.1-0.4c0.7-0.3,1.2-0.7,1.7-1.2c0.5-0.5,0.9-1.1,1.2-1.7c0.3-0.6,0.4-1.3,0.4-2.1v-13.9
			c0-0.4,0.2-0.8,0.5-1.1c0.3-0.3,0.7-0.5,1.1-0.5s0.8,0.2,1.1,0.5c0.3,0.3,0.5,0.7,0.5,1.1v13.9c0,0.8-0.1,1.5-0.3,2.3
			c-0.2,0.7-0.5,1.4-0.9,2c-0.4,0.6-0.8,1.2-1.3,1.7c-0.5,0.5-1.1,1-1.7,1.3c-0.6,0.4-1.3,0.7-2,0.9c-0.7,0.2-1.5,0.3-2.3,0.3
			c-2.4,0-4.4-0.8-6-2.5c-1.7-1.7-2.5-3.7-2.5-6.1v-13.9c0-0.4,0.2-0.8,0.5-1.1c0.3-0.3,0.7-0.5,1.1-0.5c0.4,0,0.8,0.2,1.1,0.5
			C308,476.1,308.1,476.5,308.1,476.9z"/>
		<path class="st0" d="M322.9,497.8v-20.9c0-0.2,0-0.4,0.1-0.6c0.1-0.2,0.2-0.4,0.3-0.5c0.1-0.1,0.3-0.3,0.5-0.3
			c0.2-0.1,0.4-0.1,0.6-0.1h5.8c1,0,2,0.2,2.9,0.6c0.9,0.4,1.7,0.9,2.3,1.6c0.7,0.7,1.2,1.5,1.6,2.4c0.4,0.9,0.6,1.9,0.6,2.9
			c0,0.7-0.1,1.3-0.2,1.9c-0.2,0.6-0.4,1.2-0.7,1.8c-0.3,0.6-0.7,1.1-1.2,1.5c-0.5,0.5-1.1,0.9-1.7,1.3l4.8,7.7
			c0.2,0.3,0.3,0.6,0.3,0.9c0,0.2,0,0.4-0.1,0.6c-0.1,0.2-0.2,0.4-0.3,0.5c-0.1,0.1-0.3,0.3-0.5,0.3c-0.2,0.1-0.4,0.1-0.6,0.1
			c-0.6,0-1-0.3-1.4-0.8l-5.3-8.5h-4.5v7.7c0,0.4-0.2,0.8-0.5,1.1c-0.3,0.3-0.7,0.5-1.1,0.5c-0.4,0-0.8-0.2-1.1-0.5
			C323.1,498.6,322.9,498.2,322.9,497.8z M326.1,478.5v8.4h4.2c0.6,0,1.1-0.1,1.6-0.3c0.5-0.2,1-0.5,1.3-0.9
			c0.4-0.4,0.7-0.8,0.9-1.3c0.2-0.5,0.3-1,0.3-1.6c0-0.6-0.1-1.1-0.3-1.6c-0.2-0.5-0.5-1-0.9-1.3c-0.4-0.4-0.8-0.7-1.3-0.9
			c-0.5-0.2-1.1-0.3-1.6-0.3H326.1z"/>
		<path class="st0" d="M344,497.8c0,0.4-0.2,0.8-0.5,1.1c-0.3,0.3-0.7,0.5-1.1,0.5c-0.4,0-0.8-0.2-1.1-0.5c-0.3-0.3-0.5-0.7-0.5-1.1
			v-20.9c0-0.4,0.2-0.8,0.5-1.1c0.3-0.3,0.7-0.5,1.1-0.5c0.4,0,0.8,0.2,1.1,0.5c0.3,0.3,0.5,0.7,0.5,1.1V497.8z"/>
		<path class="st0" d="M364.3,494c0.2,0,0.4,0,0.6,0.1c0.2,0.1,0.4,0.2,0.5,0.3c0.1,0.1,0.3,0.3,0.3,0.5c0.1,0.2,0.1,0.4,0.1,0.6
			c0,0.4-0.2,0.8-0.5,1.1c-2.2,1.8-4.8,2.7-7.6,2.7c-3.3,0-6.2-1.2-8.5-3.5c-2.3-2.3-3.5-5.2-3.5-8.5c0-3.3,1.2-6.2,3.5-8.5
			c2.4-2.4,5.2-3.5,8.5-3.5c2.9,0,5.4,0.9,7.7,2.8c0.3,0.3,0.4,0.6,0.4,1.1c0,0.2,0,0.4-0.1,0.6c-0.1,0.2-0.2,0.4-0.3,0.5
			c-0.1,0.1-0.3,0.3-0.5,0.3c-0.2,0.1-0.4,0.1-0.6,0.1c-0.4,0-0.8-0.1-1.1-0.5c-0.8-0.6-1.6-1.1-2.5-1.4c-0.9-0.3-1.9-0.5-2.9-0.5
			c-2.4,0-4.5,0.9-6.3,2.6c-1.7,1.7-2.6,3.8-2.6,6.2c0,2.5,0.9,4.5,2.6,6.3c1.7,1.7,3.8,2.6,6.3,2.6c2.1,0,3.9-0.6,5.5-1.9
			C363.6,494.1,364,494,364.3,494z"/>
		<path class="st0" d="M383.9,497.8c0,0.4-0.2,0.8-0.5,1.1c-0.3,0.3-0.7,0.5-1.1,0.5c-0.4,0-0.8-0.2-1.1-0.5
			c-0.3-0.3-0.5-0.7-0.5-1.1v-8.9H370v8.9c0,0.4-0.2,0.8-0.5,1.1c-0.3,0.3-0.7,0.5-1.1,0.5c-0.4,0-0.8-0.2-1.1-0.5
			c-0.3-0.3-0.5-0.7-0.5-1.1v-20.9c0-0.4,0.2-0.8,0.5-1.1c0.3-0.3,0.7-0.5,1.1-0.5c0.4,0,0.8,0.2,1.1,0.5c0.3,0.3,0.5,0.7,0.5,1.1
			v8.9h10.7v-8.9c0-0.4,0.2-0.8,0.5-1.1c0.3-0.3,0.7-0.5,1.1-0.5c0.4,0,0.8,0.2,1.1,0.5c0.3,0.3,0.5,0.7,0.5,1.1V497.8z"/>
	</g>
	<g>
		<path class="st0" d="M254.8,506.4c0.2-0.2,0.4-0.3,0.7-0.3c0.3,0,0.5,0.1,0.7,0.3c0.2,0.2,0.3,0.4,0.3,0.7c0,0.3-0.1,0.5-0.3,0.7
			c-0.2,0.2-0.4,0.3-0.7,0.3c-0.3,0-0.5-0.1-0.7-0.3c-0.2-0.2-0.3-0.4-0.3-0.7C254.6,506.8,254.7,506.6,254.8,506.4z M254.8,510.2
			c0.2-0.2,0.4-0.3,0.7-0.3c0.3,0,0.5,0.1,0.7,0.3c0.2,0.2,0.3,0.4,0.3,0.7c0,0.3-0.1,0.5-0.3,0.7c-0.2,0.2-0.4,0.3-0.7,0.3
			c-0.3,0-0.5-0.1-0.7-0.3c-0.2-0.2-0.3-0.4-0.3-0.7C254.6,510.6,254.7,510.4,254.8,510.2z"/>
	</g>
	<path class="st0" d="M258.7,510.1c0.2-0.2,0.4-0.3,0.7-0.3c0.3,0,0.5,0.1,0.7,0.3c0.2,0.2,0.3,0.4,0.3,0.7c0,0.3-0.1,0.5-0.3,0.7
		c-0.2,0.2-0.4,0.3-0.7,0.3c-0.3,0-0.5-0.1-0.7-0.3c-0.2-0.2-0.3-0.4-0.3-0.7C258.4,510.5,258.5,510.3,258.7,510.1z"/>
	<path class="st0" d="M262.7,506.4c0.2-0.2,0.4-0.3,0.7-0.3c0.3,0,0.5,0.1,0.7,0.3c0.2,0.2,0.3,0.4,0.3,0.7c0,0.3-0.1,0.5-0.3,0.7
		c-0.2,0.2-0.4,0.3-0.7,0.3c-0.3,0-0.5-0.1-0.7-0.3c-0.2-0.2-0.3-0.4-0.3-0.7C262.4,506.8,262.5,506.6,262.7,506.4z M262.7,510.2
		c0.2-0.2,0.4-0.3,0.7-0.3c0.3,0,0.5,0.1,0.7,0.3c0.2,0.2,0.3,0.4,0.3,0.7c0,0.3-0.1,0.5-0.3,0.7c-0.2,0.2-0.4,0.3-0.7,0.3
		c-0.3,0-0.5-0.1-0.7-0.3c-0.2-0.2-0.3-0.4-0.3-0.7C262.4,510.6,262.5,510.4,262.7,510.2z"/>
	<g>
		<path class="st0" d="M266.7,506.4c0.2-0.2,0.4-0.3,0.7-0.3c0.3,0,0.5,0.1,0.7,0.3c0.2,0.2,0.3,0.4,0.3,0.7c0,0.3-0.1,0.5-0.3,0.7
			c-0.2,0.2-0.4,0.3-0.7,0.3c-0.3,0-0.5-0.1-0.7-0.3c-0.2-0.2-0.3-0.4-0.3-0.7C266.4,506.8,266.5,506.6,266.7,506.4z M266.7,510.2
			c0.2-0.2,0.4-0.3,0.7-0.3c0.3,0,0.5,0.1,0.7,0.3c0.2,0.2,0.3,0.4,0.3,0.7c0,0.3-0.1,0.5-0.3,0.7c-0.2,0.2-0.4,0.3-0.7,0.3
			c-0.3,0-0.5-0.1-0.7-0.3c-0.2-0.2-0.3-0.4-0.3-0.7C266.4,510.6,266.5,510.4,266.7,510.2z"/>
	</g>
	<path class="st0" d="M270.6,510.1c0.2-0.2,0.4-0.3,0.7-0.3c0.3,0,0.5,0.1,0.7,0.3c0.2,0.2,0.3,0.4,0.3,0.7c0,0.3-0.1,0.5-0.3,0.7
		c-0.2,0.2-0.4,0.3-0.7,0.3c-0.3,0-0.5-0.1-0.7-0.3c-0.2-0.2-0.3-0.4-0.3-0.7C270.3,510.5,270.4,510.3,270.6,510.1z"/>
	<path class="st0" d="M274.5,506.4c0.2-0.2,0.4-0.3,0.7-0.3c0.3,0,0.5,0.1,0.7,0.3c0.2,0.2,0.3,0.4,0.3,0.7c0,0.3-0.1,0.5-0.3,0.7
		c-0.2,0.2-0.4,0.3-0.7,0.3c-0.3,0-0.5-0.1-0.7-0.3c-0.2-0.2-0.3-0.4-0.3-0.7C274.3,506.8,274.4,506.6,274.5,506.4z M274.5,510.2
		c0.2-0.2,0.4-0.3,0.7-0.3c0.3,0,0.5,0.1,0.7,0.3c0.2,0.2,0.3,0.4,0.3,0.7c0,0.3-0.1,0.5-0.3,0.7c-0.2,0.2-0.4,0.3-0.7,0.3
		c-0.3,0-0.5-0.1-0.7-0.3c-0.2-0.2-0.3-0.4-0.3-0.7C274.3,510.6,274.4,510.4,274.5,510.2z"/>
	<g>
		<path class="st0" d="M231.2,506.4c0.2-0.2,0.4-0.3,0.7-0.3c0.3,0,0.5,0.1,0.7,0.3c0.2,0.2,0.3,0.4,0.3,0.7c0,0.3-0.1,0.5-0.3,0.7
			c-0.2,0.2-0.4,0.3-0.7,0.3c-0.3,0-0.5-0.1-0.7-0.3c-0.2-0.2-0.3-0.4-0.3-0.7C230.9,506.8,231,506.6,231.2,506.4z M231.2,510.2
			c0.2-0.2,0.4-0.3,0.7-0.3c0.3,0,0.5,0.1,0.7,0.3c0.2,0.2,0.3,0.4,0.3,0.7c0,0.3-0.1,0.5-0.3,0.7c-0.2,0.2-0.4,0.3-0.7,0.3
			c-0.3,0-0.5-0.1-0.7-0.3c-0.2-0.2-0.3-0.4-0.3-0.7C230.9,510.6,231,510.4,231.2,510.2z"/>
	</g>
	<path class="st0" d="M235.1,510.1c0.2-0.2,0.4-0.3,0.7-0.3c0.3,0,0.5,0.1,0.7,0.3c0.2,0.2,0.3,0.4,0.3,0.7c0,0.3-0.1,0.5-0.3,0.7
		c-0.2,0.2-0.4,0.3-0.7,0.3c-0.3,0-0.5-0.1-0.7-0.3c-0.2-0.2-0.3-0.4-0.3-0.7C234.8,510.5,234.9,510.3,235.1,510.1z"/>
	<path class="st0" d="M239.1,506.4c0.2-0.2,0.4-0.3,0.7-0.3c0.3,0,0.5,0.1,0.7,0.3c0.2,0.2,0.3,0.4,0.3,0.7c0,0.3-0.1,0.5-0.3,0.7
		c-0.2,0.2-0.4,0.3-0.7,0.3c-0.3,0-0.5-0.1-0.7-0.3c-0.2-0.2-0.3-0.4-0.3-0.7C238.8,506.8,238.9,506.6,239.1,506.4z M239.1,510.2
		c0.2-0.2,0.4-0.3,0.7-0.3c0.3,0,0.5,0.1,0.7,0.3c0.2,0.2,0.3,0.4,0.3,0.7c0,0.3-0.1,0.5-0.3,0.7c-0.2,0.2-0.4,0.3-0.7,0.3
		c-0.3,0-0.5-0.1-0.7-0.3c-0.2-0.2-0.3-0.4-0.3-0.7C238.8,510.6,238.9,510.4,239.1,510.2z"/>
	<g>
		<path class="st0" d="M243,506.4c0.2-0.2,0.4-0.3,0.7-0.3c0.3,0,0.5,0.1,0.7,0.3c0.2,0.2,0.3,0.4,0.3,0.7c0,0.3-0.1,0.5-0.3,0.7
			c-0.2,0.2-0.4,0.3-0.7,0.3c-0.3,0-0.5-0.1-0.7-0.3c-0.2-0.2-0.3-0.4-0.3-0.7C242.7,506.8,242.8,506.6,243,506.4z M243,510.2
			c0.2-0.2,0.4-0.3,0.7-0.3c0.3,0,0.5,0.1,0.7,0.3c0.2,0.2,0.3,0.4,0.3,0.7c0,0.3-0.1,0.5-0.3,0.7c-0.2,0.2-0.4,0.3-0.7,0.3
			c-0.3,0-0.5-0.1-0.7-0.3c-0.2-0.2-0.3-0.4-0.3-0.7C242.7,510.6,242.8,510.4,243,510.2z"/>
	</g>
	<path class="st0" d="M246.9,510.1c0.2-0.2,0.4-0.3,0.7-0.3c0.3,0,0.5,0.1,0.7,0.3c0.2,0.2,0.3,0.4,0.3,0.7c0,0.3-0.1,0.5-0.3,0.7
		c-0.2,0.2-0.4,0.3-0.7,0.3c-0.3,0-0.5-0.1-0.7-0.3c-0.2-0.2-0.3-0.4-0.3-0.7C246.6,510.5,246.7,510.3,246.9,510.1z"/>
	<path class="st0" d="M250.9,506.4c0.2-0.2,0.4-0.3,0.7-0.3c0.3,0,0.5,0.1,0.7,0.3c0.2,0.2,0.3,0.4,0.3,0.7c0,0.3-0.1,0.5-0.3,0.7
		c-0.2,0.2-0.4,0.3-0.7,0.3c-0.3,0-0.5-0.1-0.7-0.3c-0.2-0.2-0.3-0.4-0.3-0.7C250.6,506.8,250.7,506.6,250.9,506.4z M250.9,510.2
		c0.2-0.2,0.4-0.3,0.7-0.3c0.3,0,0.5,0.1,0.7,0.3c0.2,0.2,0.3,0.4,0.3,0.7c0,0.3-0.1,0.5-0.3,0.7c-0.2,0.2-0.4,0.3-0.7,0.3
		c-0.3,0-0.5-0.1-0.7-0.3c-0.2-0.2-0.3-0.4-0.3-0.7C250.6,510.6,250.7,510.4,250.9,510.2z"/>
	<g>
		<path class="st0" d="M207.6,506.4c0.2-0.2,0.4-0.3,0.7-0.3c0.3,0,0.5,0.1,0.7,0.3c0.2,0.2,0.3,0.4,0.3,0.7c0,0.3-0.1,0.5-0.3,0.7
			c-0.2,0.2-0.4,0.3-0.7,0.3c-0.3,0-0.5-0.1-0.7-0.3c-0.2-0.2-0.3-0.4-0.3-0.7C207.3,506.8,207.4,506.6,207.6,506.4z M207.6,510.2
			c0.2-0.2,0.4-0.3,0.7-0.3c0.3,0,0.5,0.1,0.7,0.3c0.2,0.2,0.3,0.4,0.3,0.7c0,0.3-0.1,0.5-0.3,0.7c-0.2,0.2-0.4,0.3-0.7,0.3
			c-0.3,0-0.5-0.1-0.7-0.3c-0.2-0.2-0.3-0.4-0.3-0.7C207.3,510.6,207.4,510.4,207.6,510.2z"/>
	</g>
	<path class="st0" d="M211.4,510.1c0.2-0.2,0.4-0.3,0.7-0.3c0.3,0,0.5,0.1,0.7,0.3c0.2,0.2,0.3,0.4,0.3,0.7c0,0.3-0.1,0.5-0.3,0.7
		c-0.2,0.2-0.4,0.3-0.7,0.3c-0.3,0-0.5-0.1-0.7-0.3c-0.2-0.2-0.3-0.4-0.3-0.7C211.1,510.5,211.2,510.3,211.4,510.1z"/>
	<path class="st0" d="M215.4,506.4c0.2-0.2,0.4-0.3,0.7-0.3c0.3,0,0.5,0.1,0.7,0.3c0.2,0.2,0.3,0.4,0.3,0.7c0,0.3-0.1,0.5-0.3,0.7
		c-0.2,0.2-0.4,0.3-0.7,0.3c-0.3,0-0.5-0.1-0.7-0.3c-0.2-0.2-0.3-0.4-0.3-0.7C215.2,506.8,215.3,506.6,215.4,506.4z M215.4,510.2
		c0.2-0.2,0.4-0.3,0.7-0.3c0.3,0,0.5,0.1,0.7,0.3c0.2,0.2,0.3,0.4,0.3,0.7c0,0.3-0.1,0.5-0.3,0.7c-0.2,0.2-0.4,0.3-0.7,0.3
		c-0.3,0-0.5-0.1-0.7-0.3c-0.2-0.2-0.3-0.4-0.3-0.7C215.2,510.6,215.3,510.4,215.4,510.2z"/>
	<g>
		<path class="st0" d="M219.4,506.4c0.2-0.2,0.4-0.3,0.7-0.3c0.3,0,0.5,0.1,0.7,0.3c0.2,0.2,0.3,0.4,0.3,0.7c0,0.3-0.1,0.5-0.3,0.7
			c-0.2,0.2-0.4,0.3-0.7,0.3c-0.3,0-0.5-0.1-0.7-0.3c-0.2-0.2-0.3-0.4-0.3-0.7C219.1,506.8,219.2,506.6,219.4,506.4z M219.4,510.2
			c0.2-0.2,0.4-0.3,0.7-0.3c0.3,0,0.5,0.1,0.7,0.3c0.2,0.2,0.3,0.4,0.3,0.7c0,0.3-0.1,0.5-0.3,0.7c-0.2,0.2-0.4,0.3-0.7,0.3
			c-0.3,0-0.5-0.1-0.7-0.3c-0.2-0.2-0.3-0.4-0.3-0.7C219.1,510.6,219.2,510.4,219.4,510.2z"/>
	</g>
	<path class="st0" d="M223.3,510.1c0.2-0.2,0.4-0.3,0.7-0.3c0.3,0,0.5,0.1,0.7,0.3c0.2,0.2,0.3,0.4,0.3,0.7c0,0.3-0.1,0.5-0.3,0.7
		c-0.2,0.2-0.4,0.3-0.7,0.3c-0.3,0-0.5-0.1-0.7-0.3c-0.2-0.2-0.3-0.4-0.3-0.7C223,510.5,223.1,510.3,223.3,510.1z"/>
	<path class="st0" d="M227.3,506.4c0.2-0.2,0.4-0.3,0.7-0.3c0.3,0,0.5,0.1,0.7,0.3c0.2,0.2,0.3,0.4,0.3,0.7c0,0.3-0.1,0.5-0.3,0.7
		c-0.2,0.2-0.4,0.3-0.7,0.3c-0.3,0-0.5-0.1-0.7-0.3c-0.2-0.2-0.3-0.4-0.3-0.7C227,506.8,227.1,506.6,227.3,506.4z M227.3,510.2
		c0.2-0.2,0.4-0.3,0.7-0.3c0.3,0,0.5,0.1,0.7,0.3c0.2,0.2,0.3,0.4,0.3,0.7c0,0.3-0.1,0.5-0.3,0.7c-0.2,0.2-0.4,0.3-0.7,0.3
		c-0.3,0-0.5-0.1-0.7-0.3c-0.2-0.2-0.3-0.4-0.3-0.7C227,510.6,227.1,510.4,227.3,510.2z"/>
	<g>
		<path class="st1" d="M362.6,506.4c0.2-0.2,0.4-0.3,0.7-0.3c0.3,0,0.5,0.1,0.7,0.3c0.2,0.2,0.3,0.4,0.3,0.7c0,0.3-0.1,0.5-0.3,0.7
			c-0.2,0.2-0.4,0.3-0.7,0.3c-0.3,0-0.5-0.1-0.7-0.3c-0.2-0.2-0.3-0.4-0.3-0.7C362.3,506.8,362.4,506.6,362.6,506.4z M362.6,510.2
			c0.2-0.2,0.4-0.3,0.7-0.3c0.3,0,0.5,0.1,0.7,0.3c0.2,0.2,0.3,0.4,0.3,0.7c0,0.3-0.1,0.5-0.3,0.7c-0.2,0.2-0.4,0.3-0.7,0.3
			c-0.3,0-0.5-0.1-0.7-0.3c-0.2-0.2-0.3-0.4-0.3-0.7C362.3,510.6,362.4,510.4,362.6,510.2z"/>
	</g>
	<path class="st1" d="M366.5,510.1c0.2-0.2,0.4-0.3,0.7-0.3c0.3,0,0.5,0.1,0.7,0.3c0.2,0.2,0.3,0.4,0.3,0.7c0,0.3-0.1,0.5-0.3,0.7
		c-0.2,0.2-0.4,0.3-0.7,0.3c-0.3,0-0.5-0.1-0.7-0.3c-0.2-0.2-0.3-0.4-0.3-0.7C366.2,510.5,366.3,510.3,366.5,510.1z"/>
	<path class="st1" d="M370.5,506.4c0.2-0.2,0.4-0.3,0.7-0.3c0.3,0,0.5,0.1,0.7,0.3c0.2,0.2,0.3,0.4,0.3,0.7c0,0.3-0.1,0.5-0.3,0.7
		c-0.2,0.2-0.4,0.3-0.7,0.3c-0.3,0-0.5-0.1-0.7-0.3c-0.2-0.2-0.3-0.4-0.3-0.7C370.2,506.8,370.3,506.6,370.5,506.4z M370.5,510.2
		c0.2-0.2,0.4-0.3,0.7-0.3c0.3,0,0.5,0.1,0.7,0.3c0.2,0.2,0.3,0.4,0.3,0.7c0,0.3-0.1,0.5-0.3,0.7c-0.2,0.2-0.4,0.3-0.7,0.3
		c-0.3,0-0.5-0.1-0.7-0.3c-0.2-0.2-0.3-0.4-0.3-0.7C370.2,510.6,370.3,510.4,370.5,510.2z"/>
	<g>
		<path class="st1" d="M374.4,506.4c0.2-0.2,0.4-0.3,0.7-0.3c0.3,0,0.5,0.1,0.7,0.3c0.2,0.2,0.3,0.4,0.3,0.7c0,0.3-0.1,0.5-0.3,0.7
			c-0.2,0.2-0.4,0.3-0.7,0.3c-0.3,0-0.5-0.1-0.7-0.3c-0.2-0.2-0.3-0.4-0.3-0.7C374.1,506.8,374.2,506.6,374.4,506.4z M374.4,510.2
			c0.2-0.2,0.4-0.3,0.7-0.3c0.3,0,0.5,0.1,0.7,0.3c0.2,0.2,0.3,0.4,0.3,0.7c0,0.3-0.1,0.5-0.3,0.7c-0.2,0.2-0.4,0.3-0.7,0.3
			c-0.3,0-0.5-0.1-0.7-0.3c-0.2-0.2-0.3-0.4-0.3-0.7C374.1,510.6,374.2,510.4,374.4,510.2z"/>
	</g>
	<path class="st1" d="M378.3,510.1c0.2-0.2,0.4-0.3,0.7-0.3c0.3,0,0.5,0.1,0.7,0.3c0.2,0.2,0.3,0.4,0.3,0.7c0,0.3-0.1,0.5-0.3,0.7
		c-0.2,0.2-0.4,0.3-0.7,0.3c-0.3,0-0.5-0.1-0.7-0.3c-0.2-0.2-0.3-0.4-0.3-0.7C378,510.5,378.1,510.3,378.3,510.1z"/>
	<path class="st1" d="M382.3,506.4c0.2-0.2,0.4-0.3,0.7-0.3c0.3,0,0.5,0.1,0.7,0.3c0.2,0.2,0.3,0.4,0.3,0.7c0,0.3-0.1,0.5-0.3,0.7
		c-0.2,0.2-0.4,0.3-0.7,0.3c-0.3,0-0.5-0.1-0.7-0.3c-0.2-0.2-0.3-0.4-0.3-0.7C382,506.8,382.1,506.6,382.3,506.4z M382.3,510.2
		c0.2-0.2,0.4-0.3,0.7-0.3c0.3,0,0.5,0.1,0.7,0.3c0.2,0.2,0.3,0.4,0.3,0.7c0,0.3-0.1,0.5-0.3,0.7c-0.2,0.2-0.4,0.3-0.7,0.3
		c-0.3,0-0.5-0.1-0.7-0.3c-0.2-0.2-0.3-0.4-0.3-0.7C382,510.6,382.1,510.4,382.3,510.2z"/>
	<g>
		<path class="st1" d="M338.9,506.4c0.2-0.2,0.4-0.3,0.7-0.3c0.3,0,0.5,0.1,0.7,0.3c0.2,0.2,0.3,0.4,0.3,0.7c0,0.3-0.1,0.5-0.3,0.7
			c-0.2,0.2-0.4,0.3-0.7,0.3c-0.3,0-0.5-0.1-0.7-0.3c-0.2-0.2-0.3-0.4-0.3-0.7C338.7,506.8,338.8,506.6,338.9,506.4z M338.9,510.2
			c0.2-0.2,0.4-0.3,0.7-0.3c0.3,0,0.5,0.1,0.7,0.3c0.2,0.2,0.3,0.4,0.3,0.7c0,0.3-0.1,0.5-0.3,0.7c-0.2,0.2-0.4,0.3-0.7,0.3
			c-0.3,0-0.5-0.1-0.7-0.3c-0.2-0.2-0.3-0.4-0.3-0.7C338.7,510.6,338.8,510.4,338.9,510.2z"/>
	</g>
	<path class="st1" d="M342.8,510.1c0.2-0.2,0.4-0.3,0.7-0.3c0.3,0,0.5,0.1,0.7,0.3c0.2,0.2,0.3,0.4,0.3,0.7c0,0.3-0.1,0.5-0.3,0.7
		c-0.2,0.2-0.4,0.3-0.7,0.3c-0.3,0-0.5-0.1-0.7-0.3c-0.2-0.2-0.3-0.4-0.3-0.7C342.5,510.5,342.6,510.3,342.8,510.1z"/>
	<path class="st1" d="M346.8,506.4c0.2-0.2,0.4-0.3,0.7-0.3c0.3,0,0.5,0.1,0.7,0.3c0.2,0.2,0.3,0.4,0.3,0.7c0,0.3-0.1,0.5-0.3,0.7
		c-0.2,0.2-0.4,0.3-0.7,0.3c-0.3,0-0.5-0.1-0.7-0.3c-0.2-0.2-0.3-0.4-0.3-0.7C346.5,506.8,346.6,506.6,346.8,506.4z M346.8,510.2
		c0.2-0.2,0.4-0.3,0.7-0.3c0.3,0,0.5,0.1,0.7,0.3c0.2,0.2,0.3,0.4,0.3,0.7c0,0.3-0.1,0.5-0.3,0.7c-0.2,0.2-0.4,0.3-0.7,0.3
		c-0.3,0-0.5-0.1-0.7-0.3c-0.2-0.2-0.3-0.4-0.3-0.7C346.5,510.6,346.6,510.4,346.8,510.2z"/>
	<g>
		<path class="st1" d="M350.8,506.4c0.2-0.2,0.4-0.3,0.7-0.3c0.3,0,0.5,0.1,0.7,0.3c0.2,0.2,0.3,0.4,0.3,0.7c0,0.3-0.1,0.5-0.3,0.7
			c-0.2,0.2-0.4,0.3-0.7,0.3c-0.3,0-0.5-0.1-0.7-0.3c-0.2-0.2-0.3-0.4-0.3-0.7C350.5,506.8,350.6,506.6,350.8,506.4z M350.8,510.2
			c0.2-0.2,0.4-0.3,0.7-0.3c0.3,0,0.5,0.1,0.7,0.3c0.2,0.2,0.3,0.4,0.3,0.7c0,0.3-0.1,0.5-0.3,0.7c-0.2,0.2-0.4,0.3-0.7,0.3
			c-0.3,0-0.5-0.1-0.7-0.3c-0.2-0.2-0.3-0.4-0.3-0.7C350.5,510.6,350.6,510.4,350.8,510.2z"/>
	</g>
	<path class="st1" d="M354.7,510.1c0.2-0.2,0.4-0.3,0.7-0.3c0.3,0,0.5,0.1,0.7,0.3c0.2,0.2,0.3,0.4,0.3,0.7c0,0.3-0.1,0.5-0.3,0.7
		c-0.2,0.2-0.4,0.3-0.7,0.3c-0.3,0-0.5-0.1-0.7-0.3c-0.2-0.2-0.3-0.4-0.3-0.7C354.4,510.5,354.5,510.3,354.7,510.1z"/>
	<path class="st1" d="M358.6,506.4c0.2-0.2,0.4-0.3,0.7-0.3c0.3,0,0.5,0.1,0.7,0.3c0.2,0.2,0.3,0.4,0.3,0.7c0,0.3-0.1,0.5-0.3,0.7
		c-0.2,0.2-0.4,0.3-0.7,0.3c-0.3,0-0.5-0.1-0.7-0.3c-0.2-0.2-0.3-0.4-0.3-0.7C358.4,506.8,358.5,506.6,358.6,506.4z M358.6,510.2
		c0.2-0.2,0.4-0.3,0.7-0.3c0.3,0,0.5,0.1,0.7,0.3c0.2,0.2,0.3,0.4,0.3,0.7c0,0.3-0.1,0.5-0.3,0.7c-0.2,0.2-0.4,0.3-0.7,0.3
		c-0.3,0-0.5-0.1-0.7-0.3c-0.2-0.2-0.3-0.4-0.3-0.7C358.4,510.6,358.5,510.4,358.6,510.2z"/>
	<g>
		<path class="st1" d="M315.3,506.4c0.2-0.2,0.4-0.3,0.7-0.3c0.3,0,0.5,0.1,0.7,0.3c0.2,0.2,0.3,0.4,0.3,0.7c0,0.3-0.1,0.5-0.3,0.7
			c-0.2,0.2-0.4,0.3-0.7,0.3c-0.3,0-0.5-0.1-0.7-0.3c-0.2-0.2-0.3-0.4-0.3-0.7C315,506.8,315.1,506.6,315.3,506.4z M315.3,510.2
			c0.2-0.2,0.4-0.3,0.7-0.3c0.3,0,0.5,0.1,0.7,0.3c0.2,0.2,0.3,0.4,0.3,0.7c0,0.3-0.1,0.5-0.3,0.7c-0.2,0.2-0.4,0.3-0.7,0.3
			c-0.3,0-0.5-0.1-0.7-0.3c-0.2-0.2-0.3-0.4-0.3-0.7C315,510.6,315.1,510.4,315.3,510.2z"/>
	</g>
	<path class="st1" d="M319.2,510.1c0.2-0.2,0.4-0.3,0.7-0.3c0.3,0,0.5,0.1,0.7,0.3c0.2,0.2,0.3,0.4,0.3,0.7c0,0.3-0.1,0.5-0.3,0.7
		c-0.2,0.2-0.4,0.3-0.7,0.3c-0.3,0-0.5-0.1-0.7-0.3c-0.2-0.2-0.3-0.4-0.3-0.7C318.9,510.5,319,510.3,319.2,510.1z"/>
	<path class="st1" d="M323.2,506.4c0.2-0.2,0.4-0.3,0.7-0.3c0.3,0,0.5,0.1,0.7,0.3c0.2,0.2,0.3,0.4,0.3,0.7c0,0.3-0.1,0.5-0.3,0.7
		c-0.2,0.2-0.4,0.3-0.7,0.3c-0.3,0-0.5-0.1-0.7-0.3c-0.2-0.2-0.3-0.4-0.3-0.7C322.9,506.8,323,506.6,323.2,506.4z M323.2,510.2
		c0.2-0.2,0.4-0.3,0.7-0.3c0.3,0,0.5,0.1,0.7,0.3c0.2,0.2,0.3,0.4,0.3,0.7c0,0.3-0.1,0.5-0.3,0.7c-0.2,0.2-0.4,0.3-0.7,0.3
		c-0.3,0-0.5-0.1-0.7-0.3c-0.2-0.2-0.3-0.4-0.3-0.7C322.9,510.6,323,510.4,323.2,510.2z"/>
	<g>
		<path class="st1" d="M327.1,506.4c0.2-0.2,0.4-0.3,0.7-0.3c0.3,0,0.5,0.1,0.7,0.3c0.2,0.2,0.3,0.4,0.3,0.7c0,0.3-0.1,0.5-0.3,0.7
			c-0.2,0.2-0.4,0.3-0.7,0.3c-0.3,0-0.5-0.1-0.7-0.3c-0.2-0.2-0.3-0.4-0.3-0.7C326.8,506.8,326.9,506.6,327.1,506.4z M327.1,510.2
			c0.2-0.2,0.4-0.3,0.7-0.3c0.3,0,0.5,0.1,0.7,0.3c0.2,0.2,0.3,0.4,0.3,0.7c0,0.3-0.1,0.5-0.3,0.7c-0.2,0.2-0.4,0.3-0.7,0.3
			c-0.3,0-0.5-0.1-0.7-0.3c-0.2-0.2-0.3-0.4-0.3-0.7C326.8,510.6,326.9,510.4,327.1,510.2z"/>
	</g>
	<path class="st1" d="M331,510.1c0.2-0.2,0.4-0.3,0.7-0.3c0.3,0,0.5,0.1,0.7,0.3c0.2,0.2,0.3,0.4,0.3,0.7c0,0.3-0.1,0.5-0.3,0.7
		c-0.2,0.2-0.4,0.3-0.7,0.3c-0.3,0-0.5-0.1-0.7-0.3c-0.2-0.2-0.3-0.4-0.3-0.7C330.7,510.5,330.8,510.3,331,510.1z"/>
	<path class="st1" d="M335,506.4c0.2-0.2,0.4-0.3,0.7-0.3c0.3,0,0.5,0.1,0.7,0.3c0.2,0.2,0.3,0.4,0.3,0.7c0,0.3-0.1,0.5-0.3,0.7
		c-0.2,0.2-0.4,0.3-0.7,0.3c-0.3,0-0.5-0.1-0.7-0.3c-0.2-0.2-0.3-0.4-0.3-0.7C334.7,506.8,334.8,506.6,335,506.4z M335,510.2
		c0.2-0.2,0.4-0.3,0.7-0.3c0.3,0,0.5,0.1,0.7,0.3c0.2,0.2,0.3,0.4,0.3,0.7c0,0.3-0.1,0.5-0.3,0.7c-0.2,0.2-0.4,0.3-0.7,0.3
		c-0.3,0-0.5-0.1-0.7-0.3c-0.2-0.2-0.3-0.4-0.3-0.7C334.7,510.6,334.8,510.4,335,510.2z"/>
	<path class="st2" d="M391,353.6L391,353.6c-2.6-3.5-6.5-6.2-10.8-7.3c-0.1,0-0.2,0-0.3,0c-0.7,0-1.3,0.5-1.5,1.1
		c-0.2,0.4-0.1,0.9,0.1,1.3c0.2,0.4,0.5,0.6,0.9,0.7c4.5,1.2,8.4,4.4,10.5,8.6c1.7,3.4,2.1,7.5,1.2,11.2c-0.1,0.4,0,0.8,0.2,1.2
		c0.2,0.3,0.6,0.6,1,0.6c0.8,0.2,1.7-0.2,1.9-0.9C395.6,364.5,394.4,358.2,391,353.6z"/>
	<path class="st2" d="M384.6,368.3c0.2,0.4,0.6,0.6,1,0.7c0.4,0.1,0.8,0.1,1.2-0.1c0.4-0.2,0.6-0.5,0.7-0.9
		c0.9-3.5,0.2-7.4-1.9-10.3c-1.8-2.4-4.4-4.1-7.1-4.6c-0.1,0-0.2,0-0.2,0c-0.6,0-1,0.4-1.1,0.6c-0.4,0.5-0.5,1.2-0.2,1.7
		c0.2,0.4,0.6,0.8,1.1,0.9c2.4,0.6,4.5,2.3,5.6,4.5c1,1.9,1.2,4.2,0.7,6.3C384.3,367.6,384.4,368,384.6,368.3z"/>
</g>
</svg>
