<?xml version="1.0" encoding="utf-8"?>
<!-- Generator: Adobe Illustrator 19.1.0, SVG Export Plug-In . SVG Version: 6.00 Build 0)  -->
<svg version="1.1" id="Layer_1" xmlns="http://www.w3.org/2000/svg" xmlns:xlink="http://www.w3.org/1999/xlink" x="0px" y="0px"
	 viewBox="0 0 595.3 841.9" style="enable-background:new 0 0 595.3 841.9;" xml:space="preserve">
<style type="text/css">
	.st0{fill:#004575;}
	.st1{fill:#0079C2;}
	.st2{fill:#FFFFFF;}
	.st3{opacity:0.3;}
	.st4{opacity:0.8;fill:#0079C2;}
	.st5{opacity:0.5;fill:#FFFFFF;}
</style>
<g>
	<path class="st0" d="M269.3,584.2c1,0.5,1.7,1.2,2.2,2c0.5,0.9,0.8,1.8,0.8,2.9c0,1.2-0.3,2.3-0.8,3.5c-0.5,1.1-1.4,2.4-2.7,3.7
		c-1.2,1.4-3,3-5.2,5.1h9.1l-0.4,2.6h-12.5v-2.5c2.5-2.4,4.4-4.3,5.7-5.7c1.2-1.4,2.1-2.5,2.6-3.5c0.5-1,0.8-2,0.8-3
		c0-1-0.3-1.8-0.9-2.4c-0.6-0.6-1.4-0.9-2.4-0.9c-0.9,0-1.6,0.2-2.2,0.5c-0.6,0.3-1.2,0.9-1.9,1.6l-2.1-1.6c0.8-1,1.7-1.8,2.7-2.3
		c1-0.5,2.3-0.8,3.7-0.8C267.2,583.4,268.4,583.7,269.3,584.2z"/>
	<path class="st0" d="M289.4,586.1c1.2,1.8,1.8,4.4,1.8,7.8c0,3.4-0.6,6-1.8,7.8c-1.2,1.8-2.9,2.7-5.1,2.7c-2.2,0-3.9-0.9-5.1-2.7
		c-1.2-1.8-1.8-4.4-1.8-7.8c0-3.4,0.6-6,1.8-7.8c1.2-1.8,2.9-2.7,5.1-2.7C286.5,583.4,288.2,584.3,289.4,586.1z M281.6,587.8
		c-0.6,1.3-0.9,3.3-0.9,6c0,2.8,0.3,4.8,0.9,6.1c0.6,1.3,1.5,1.9,2.7,1.9c1.2,0,2.1-0.6,2.7-1.9c0.6-1.3,0.9-3.3,0.9-6.1
		c0-2.8-0.3-4.8-0.9-6.1c-0.6-1.3-1.5-1.9-2.7-1.9C283.1,585.9,282.2,586.6,281.6,587.8z M285.6,592.6c0.4,0.4,0.6,0.8,0.6,1.3
		c0,0.5-0.2,1-0.6,1.4c-0.4,0.4-0.8,0.6-1.4,0.6c-0.5,0-1-0.2-1.4-0.6c-0.4-0.4-0.5-0.8-0.5-1.4c0-0.5,0.2-1,0.5-1.3
		c0.4-0.4,0.8-0.6,1.4-0.6C284.8,592,285.3,592.2,285.6,592.6z"/>
	<path class="st1" d="M304.4,584.2c1,0.5,1.7,1.2,2.2,2c0.5,0.9,0.8,1.8,0.8,2.9c0,1.2-0.3,2.3-0.8,3.5c-0.5,1.1-1.4,2.4-2.7,3.7
		c-1.2,1.4-3,3-5.2,5.1h9.1l-0.4,2.6h-12.5v-2.5c2.5-2.4,4.4-4.3,5.7-5.7c1.2-1.4,2.1-2.5,2.6-3.5c0.5-1,0.8-2,0.8-3
		c0-1-0.3-1.8-0.9-2.4c-0.6-0.6-1.4-0.9-2.4-0.9c-0.9,0-1.6,0.2-2.2,0.5c-0.6,0.3-1.2,0.9-1.9,1.6l-2.1-1.6c0.8-1,1.7-1.8,2.7-2.3
		c1-0.5,2.3-0.8,3.7-0.8C302.3,583.4,303.4,583.7,304.4,584.2z"/>
	<path class="st1" d="M324.4,586.1c1.2,1.8,1.8,4.4,1.8,7.8c0,3.4-0.6,6-1.8,7.8c-1.2,1.8-2.9,2.7-5.1,2.7s-3.9-0.9-5.1-2.7
		c-1.2-1.8-1.8-4.4-1.8-7.8c0-3.4,0.6-6,1.8-7.8c1.2-1.8,2.9-2.7,5.1-2.7S323.3,584.3,324.4,586.1z M316.7,587.8
		c-0.6,1.3-0.9,3.3-0.9,6c0,2.8,0.3,4.8,0.9,6.1c0.6,1.3,1.5,1.9,2.7,1.9c1.2,0,2.1-0.6,2.7-1.9c0.6-1.3,0.9-3.3,0.9-6.1
		c0-2.8-0.3-4.8-0.9-6.1c-0.6-1.3-1.5-1.9-2.7-1.9C318.2,585.9,317.3,586.6,316.7,587.8z M320.7,592.6c0.4,0.4,0.6,0.8,0.6,1.3
		c0,0.5-0.2,1-0.6,1.4c-0.4,0.4-0.8,0.6-1.4,0.6c-0.5,0-1-0.2-1.4-0.6c-0.4-0.4-0.5-0.8-0.5-1.4c0-0.5,0.2-1,0.5-1.3
		c0.4-0.4,0.8-0.6,1.4-0.6C319.9,592,320.3,592.2,320.7,592.6z"/>
</g>
<circle class="st2" cx="400.1" cy="372.5" r="129.8"/>
<path class="st1" d="M400.1,506.9c-74.1,0-134.3-60.3-134.3-134.3S326,238.2,400.1,238.2s134.3,60.3,134.3,134.3
	S474.2,506.9,400.1,506.9z M400.1,247.2c-69.1,0-125.3,56.2-125.3,125.3S331,497.9,400.1,497.9s125.3-56.2,125.3-125.3
	S469.2,247.2,400.1,247.2z"/>
<path class="st1" d="M194,239.7c-73.3,0-132.8,59.6-132.8,132.8S120.7,505.4,194,505.4s132.8-59.6,132.8-132.8
	S267.2,239.7,194,239.7z"/>
<g class="st3">
	<g>
		<path class="st2" d="M307.1,467.4c-0.7-0.7-1.4-1.4-2.1-2.1c-24.3-25-37.7-57.9-37.7-92.7c0-35.5,13.8-68.8,38.9-93.9l4.2,4.2
			c-24,24-37.1,55.8-37.1,89.7c0,33.3,12.8,64.7,36,88.5c0.7,0.7,1.4,1.4,2.1,2.1L307.1,467.4z"/>
	</g>
</g>
<g class="st3">
	<g>
		<path class="st2" d="M290.6,308.5l-5.2-3c0.5-0.9,1-1.8,1.6-2.6c18.3-29.7,46.9-50.7,80.7-59.2c34.4-8.7,70.1-3.4,100.6,14.8
			l-3.1,5.2c-29.1-17.4-63.2-22.4-96-14.1c-32.3,8.1-59.6,28.2-77,56.5C291.6,306.8,291.1,307.7,290.6,308.5z"/>
	</g>
</g>
<g class="st3">
	<g>
		<path class="st2" d="M520.2,331.6c-10.9-32.1-33.7-58-64.1-72.9c-29.8-14.7-63.7-17.1-95.3-6.8c-0.9,0.3-1.8,0.6-2.7,0.9l-2-5.7
			c1-0.3,1.9-0.7,2.9-1c33.1-10.8,68.6-8.3,99.8,7.1c31.8,15.7,55.7,42.8,67.1,76.4L520.2,331.6z"/>
	</g>
</g>
<g class="st3">
	<g>
		<path class="st2" d="M531.9,389l-6-0.7c4.2-33.6-4.9-66.9-25.7-93.6c-20.4-26.2-49.8-43.2-82.7-47.8c-1-0.1-1.9-0.3-2.9-0.4l0.6-6
			c1,0.1,2,0.2,3,0.4c34.6,4.8,65.3,22.6,86.7,50C526.8,319,536.3,353.8,531.9,389z"/>
	</g>
</g>
<g class="st3">
	<g>
		<path class="st2" d="M400.1,505.4c-16.9,0-33.7-3.2-49.8-9.7c-32.9-13.3-58.6-38.6-72.5-71.3l5.5-2.3
			c13.2,31.2,37.8,55.4,69.2,68.1c30.8,12.5,64.8,12.4,95.5-0.2c0.9-0.4,1.8-0.7,2.7-1.1l2.4,5.5c-0.9,0.4-1.9,0.8-2.8,1.2
			C434.2,502.1,417.1,505.4,400.1,505.4z"/>
	</g>
</g>
<g class="st3">
	<g>
		<path class="st2" d="M410.2,505l-0.5-6c33.8-2.6,64.5-18.2,86.6-43.9c21.6-25.2,32.4-57.4,30.3-90.6c-0.1-1-0.1-1.9-0.2-2.9l6-0.6
			c0.1,1,0.2,2,0.2,3.1c2.2,34.8-9.1,68.5-31.8,94.9C477.8,486,445.6,502.3,410.2,505z"/>
	</g>
</g>
<g class="st3">
	<g>
		<path class="st2" d="M193.9,502.9c-19.1,0-38.2-4.3-55.9-12.7c-31.4-15-55.1-41.3-66.8-74l5.7-2c11.1,31.3,33.7,56.4,63.7,70.6
			c29.4,14,62.6,15.9,93.4,5.4c0.9-0.3,1.8-0.6,2.7-0.9l2.1,5.6c-0.9,0.3-1.9,0.7-2.8,1C222.2,500.5,208,502.9,193.9,502.9z"/>
	</g>
</g>
<g class="st3">
	<g>
		<path class="st2" d="M86.3,445.8c-0.6-0.8-1.1-1.6-1.7-2.5C66,414.7,59.5,380.4,66.2,347c6.8-34.1,26.6-63.5,55.5-82.8l3.3,5
			c-27.6,18.4-46.4,46.5-52.9,79c-6.4,31.9-0.2,64.6,17.5,91.9c0.5,0.8,1,1.6,1.6,2.4L86.3,445.8z"/>
	</g>
</g>
<g class="st3">
	<g>
		<path class="st2" d="M70.4,359.4l-6-0.6c0.1-1,0.2-2,0.3-3c4.4-33.9,21.6-64.2,48.3-85.4c27.3-21.6,61.3-31.3,95.9-27.2l-0.7,6
			c-33-3.8-65.4,5.4-91.5,26c-25.5,20.2-41.9,49.1-46.1,81.5C70.6,357.5,70.5,358.4,70.4,359.4z"/>
	</g>
</g>
<g class="st3">
	<g>
		<path class="st2" d="M88.6,306.6l-5.1-3.1c0.5-0.9,1.1-1.7,1.6-2.5c18.8-28.5,47.5-48.3,80.8-55.6c34-7.5,68.8-1.3,98.2,17.5
			l-3.2,5.1c-28-17.9-61.2-23.8-93.6-16.7c-31.8,7-59.2,25.9-77.1,53.1C89.6,305,89.1,305.8,88.6,306.6z"/>
	</g>
</g>
<g class="st3">
	<g>
		<path class="st2" d="M194.1,502.8c-1.9,0-3.8,0-5.7-0.1l0.3-6c33.2,1.4,64.9-10.1,89.3-32.6c24-22,38.2-52.1,40.1-84.6
			c0-0.9,0.1-1.9,0.1-2.8l6,0.1c0,1-0.1,2-0.1,3c-1.9,34.1-16.8,65.6-42,88.7C257.8,490.8,226.7,502.8,194.1,502.8z"/>
	</g>
</g>
<g class="st3">
	<g>
		<path class="st2" d="M315.5,419.4l-5.6-2.2c11.9-31,11.1-64.7-2.3-95.1c-13.2-29.8-37.1-52.8-67.4-65c-0.9-0.3-1.8-0.7-2.6-1
			l2.1-5.6c0.9,0.3,1.9,0.7,2.8,1.1c31.7,12.7,56.8,36.9,70.6,68.1C327.1,351.6,328,386.9,315.5,419.4z"/>
	</g>
</g>
<path class="st4" d="M465.7,311.5c0-8.4-6.8-15.2-15.2-15.2H349.8c-8.4,0-15.2,6.8-15.2,15.2c0,8.4,6.8,15.2,15.2,15.2h100.6
	C458.8,326.7,465.7,319.9,465.7,311.5z M339.2,311.5c0-5.6,4.5-10.1,10.1-10.1c5.6,0,10.1,4.5,10.1,10.1c0,5.6-4.5,10.1-10.1,10.1
	C343.7,321.6,339.2,317.1,339.2,311.5z M440.2,311.5c0-5.6,4.5-10.1,10.1-10.1c5.6,0,10.1,4.5,10.1,10.1c0,5.6-4.5,10.1-10.1,10.1
	C444.8,321.6,440.2,317.1,440.2,311.5z"/>
<path class="st4" d="M465.7,432.7c0-8.4-6.8-15.2-15.2-15.2H349.8c-8.4,0-15.2,6.8-15.2,15.2c0,8.4,6.8,15.2,15.2,15.2h100.6
	C458.8,448,465.7,441.1,465.7,432.7z M339.2,432.7c0-5.6,4.5-10.1,10.1-10.1c5.6,0,10.1,4.5,10.1,10.1c0,5.6-4.5,10.1-10.1,10.1
	C343.7,442.8,339.2,438.3,339.2,432.7z M440.2,432.7c0-5.6,4.5-10.1,10.1-10.1c5.6,0,10.1,4.5,10.1,10.1c0,5.6-4.5,10.1-10.1,10.1
	C444.8,442.8,440.2,438.3,440.2,432.7z"/>
<path class="st4" d="M461.2,300.7c-5.9-6-15.6-6-21.5,0L339,422c-5.9,6-5.9,15.6,0,21.5c5.9,5.9,15.6,5.9,21.5,0l100.6-121.2
	C467.1,316.3,467.1,306.7,461.2,300.7z M342.3,440.2c-4-3.9-4-10.4,0-14.3c3.9-3.9,10.4-3.9,14.3,0c3.9,3.9,3.9,10.4,0,14.3
	C352.7,444.2,346.3,444.2,342.3,440.2z M443.2,318.7c-3.9-4-3.9-10.4,0-14.3c3.9-3.9,10.4-3.9,14.3,0c3.9,4,3.9,10.4,0,14.3
	C453.6,322.7,447.2,322.7,443.2,318.7z"/>
<g>
	<path class="st5" d="M135.9,295.9c-8.4,0-15.2,6.8-15.2,15.2v121.2c0,8.4,6.8,15.2,15.2,15.2c8.4,0,15.2-6.8,15.2-15.2V311.2
		C151.1,302.7,144.3,295.9,135.9,295.9z M135.9,443c-5.6,0-10.1-4.5-10.1-10.1c0-5.6,4.5-10.1,10.1-10.1c5.6,0,10.1,4.5,10.1,10.1
		C146,438.4,141.5,443,135.9,443z M135.9,321.4c-5.6,0-10.1-4.5-10.1-10.1c0-5.6,4.5-10.1,10.1-10.1c5.6,0,10.1,4.5,10.1,10.1
		C146,316.8,141.5,321.4,135.9,321.4z"/>
	<path class="st5" d="M125.1,300.7c-5.9,5.9-5.9,15.6,0,21.5l60.7,60.7c6,6,15.6,6,21.5,0c5.9-5.9,5.9-15.6,0-21.5l-60.7-60.7
		C140.7,294.8,131.1,294.8,125.1,300.7z M204,379.7c-4,4-10.4,4-14.3,0c-3.9-4-4-10.4,0-14.3c4-3.9,10.4-3.9,14.3,0
		C208,369.3,208,375.7,204,379.7z M143.1,318.7c-4,4-10.4,3.9-14.3,0c-3.9-4-4-10.4,0-14.3c4-3.9,10.4-3.9,14.3,0
		C147,308.4,147,314.8,143.1,318.7z"/>
	<path class="st5" d="M268.8,300.7c-5.9-6-15.6-6-21.5,0l-60.7,60.7c-5.9,5.9-5.9,15.6,0,21.5c5.9,6,15.6,6,21.5,0l60.7-60.7
		C274.7,316.3,274.7,306.7,268.8,300.7z M189.8,379.7c-4-4-4-10.4,0-14.3c3.9-3.9,10.4-4,14.3,0c3.9,3.9,3.9,10.4,0,14.3
		C200.2,383.6,193.8,383.6,189.8,379.7z M250.8,318.7c-4-4-3.9-10.4,0-14.3c4-3.9,10.4-3.9,14.3,0c3.9,4,3.9,10.4,0,14.3
		C261.1,322.7,254.7,322.7,250.8,318.7z"/>
	<path class="st5" d="M258,296.3c-8.4,0-15.2,6.8-15.2,15.2v121.2c0,8.4,6.8,15.2,15.2,15.2c8.4,0,15.2-6.8,15.2-15.2V311.5
		C273.2,303.1,266.4,296.3,258,296.3z M258,443.3c-5.6,0-10.1-4.5-10.1-10.1c0-5.6,4.5-10.1,10.1-10.1c5.6,0,10.1,4.5,10.1,10.1
		C268.1,438.8,263.6,443.3,258,443.3z M258,321.7c-5.6,0-10.1-4.5-10.1-10.1c0-5.6,4.5-10.1,10.1-10.1c5.6,0,10.1,4.5,10.1,10.1
		C268.1,317.2,263.6,321.7,258,321.7z"/>
</g>
<g>
	<g>
		<path class="st2" d="M450.4,327.9H349.8c-9,0-16.4-7.3-16.4-16.4c0-9,7.3-16.4,16.4-16.4h100.6c9,0,16.4,7.3,16.4,16.4
			C466.8,320.5,459.4,327.9,450.4,327.9z M349.8,297.4c-7.8,0-14.1,6.3-14.1,14.1c0,7.8,6.3,14.1,14.1,14.1h100.6
			c7.8,0,14.1-6.3,14.1-14.1c0-7.8-6.3-14.1-14.1-14.1H349.8z M450.3,322.7c-6.2,0-11.2-5-11.2-11.2c0-6.2,5-11.2,11.2-11.2
			c6.2,0,11.2,5,11.2,11.2C461.6,317.7,456.5,322.7,450.3,322.7z M450.3,302.5c-5,0-9,4-9,9c0,5,4,9,9,9c5,0,9-4,9-9
			C459.3,306.5,455.3,302.5,450.3,302.5z M349.3,322.7c-6.2,0-11.2-5-11.2-11.2c0-6.2,5-11.2,11.2-11.2c6.2,0,11.2,5,11.2,11.2
			C360.6,317.7,355.5,322.7,349.3,322.7z M349.3,302.5c-5,0-9,4-9,9c0,5,4,9,9,9c5,0,9-4,9-9C358.3,306.5,354.3,302.5,349.3,302.5z"
			/>
	</g>
</g>
<g>
	<g>
		<path class="st2" d="M450.4,449.1H349.8c-9,0-16.4-7.3-16.4-16.4c0-9,7.3-16.4,16.4-16.4h100.6c9,0,16.4,7.3,16.4,16.4
			C466.8,441.8,459.4,449.1,450.4,449.1z M349.8,418.6c-7.8,0-14.1,6.3-14.1,14.1c0,7.8,6.3,14.1,14.1,14.1h100.6
			c7.8,0,14.1-6.3,14.1-14.1c0-7.8-6.3-14.1-14.1-14.1H349.8z M450.3,444c-6.2,0-11.2-5-11.2-11.2c0-6.2,5-11.2,11.2-11.2
			c6.2,0,11.2,5,11.2,11.2C461.6,438.9,456.5,444,450.3,444z M450.3,423.7c-5,0-9,4-9,9c0,5,4,9,9,9c5,0,9-4,9-9
			C459.3,427.8,455.3,423.7,450.3,423.7z M349.3,444c-6.2,0-11.2-5-11.2-11.2c0-6.2,5-11.2,11.2-11.2c6.2,0,11.2,5,11.2,11.2
			C360.6,438.9,355.5,444,349.3,444z M349.3,423.7c-5,0-9,4-9,9c0,5,4,9,9,9c5,0,9-4,9-9C358.3,427.8,354.3,423.7,349.3,423.7z"/>
	</g>
</g>
<g>
	<g>
		<path class="st2" d="M349.8,449.1c-4.4,0-8.5-1.7-11.6-4.8c-6.4-6.4-6.4-16.8,0-23.1L438.8,300c3.2-3.2,7.3-4.9,11.6-4.9
			c4.4,0,8.5,1.7,11.6,4.8c3.1,3.1,4.8,7.2,4.8,11.6c0,4.4-1.7,8.5-4.8,11.6L361.4,444.2C358.3,447.4,354.2,449.1,349.8,449.1z
			 M450.4,297.4c-3.8,0-7.3,1.5-10,4.1L339.9,422.7c-5.6,5.6-5.6,14.5-0.1,20c2.7,2.7,6.2,4.1,10,4.1c3.8,0,7.3-1.5,10-4.1
			l100.6-121.1c2.7-2.7,4.2-6.3,4.2-10.1c0-3.8-1.5-7.3-4.1-10C457.7,298.9,454.2,297.4,450.4,297.4z M349.5,444.3
			c-3,0-5.8-1.2-7.9-3.3c-2.1-2.1-3.3-4.9-3.3-7.9c0-3,1.2-5.8,3.3-7.9c2.1-2.1,4.9-3.3,7.9-3.3c3,0,5.8,1.2,7.9,3.3
			c2.1,2.1,3.3,4.9,3.3,7.9c0,3-1.2,5.8-3.3,7.9C355.3,443.1,352.5,444.3,349.5,444.3z M349.5,424.1c-2.4,0-4.7,0.9-6.4,2.6
			c-1.7,1.7-2.6,4-2.6,6.4c0,2.4,0.9,4.7,2.6,6.4c3.4,3.4,9.3,3.4,12.7,0c1.7-1.7,2.6-4,2.6-6.4c0-2.4-0.9-4.7-2.6-6.4
			C354.1,425,351.9,424.1,349.5,424.1z M450.4,322.8c-3,0-5.8-1.2-7.9-3.3c-4.4-4.4-4.4-11.5,0-15.9c4.3-4.2,11.7-4.2,15.9,0
			c4.4,4.4,4.4,11.5,0,15.9C456.2,321.6,453.4,322.8,450.4,322.8z M450.4,302.6c-2.4,0-4.7,0.9-6.4,2.6c-3.5,3.5-3.5,9.2,0,12.7
			c3.4,3.4,9.3,3.4,12.7,0c3.5-3.5,3.5-9.2,0-12.7C455,303.5,452.8,302.6,450.4,302.6z"/>
	</g>
</g>
<g>
	<g>
		<path class="st2" d="M135.9,448.4c-8.8,0-16-7.2-16-16V311.2c0-8.8,7.2-16,16-16c8.8,0,16,7.2,16,16v121.2
			C151.9,441.2,144.7,448.4,135.9,448.4z M135.9,296.7c-8,0-14.5,6.5-14.5,14.5v121.2c0,8,6.5,14.5,14.5,14.5
			c8,0,14.5-6.5,14.5-14.5V311.2C150.4,303.2,143.9,296.7,135.9,296.7z M135.9,443.7c-6,0-10.9-4.9-10.9-10.9
			c0-6,4.9-10.9,10.9-10.9c6,0,10.9,4.9,10.9,10.9C146.8,438.8,141.9,443.7,135.9,443.7z M135.9,423.5c-5.2,0-9.4,4.2-9.4,9.4
			c0,5.2,4.2,9.4,9.4,9.4c5.2,0,9.4-4.2,9.4-9.4C145.3,427.7,141,423.5,135.9,423.5z M135.9,322.1c-6,0-10.9-4.9-10.9-10.9
			c0-6,4.9-10.9,10.9-10.9c6,0,10.9,4.9,10.9,10.9C146.8,317.2,141.9,322.1,135.9,322.1z M135.9,301.9c-5.2,0-9.4,4.2-9.4,9.4
			c0,5.2,4.2,9.4,9.4,9.4c5.2,0,9.4-4.2,9.4-9.4C145.3,306.1,141,301.9,135.9,301.9z"/>
	</g>
</g>
<g>
	<g>
		<path class="st2" d="M196.6,388.2c-4.3,0-8.3-1.7-11.3-4.7l-60.7-60.7c-3-3-4.7-7-4.7-11.3c0-4.3,1.7-8.3,4.7-11.3
			c3-3,7-4.7,11.3-4.7c4.3,0,8.3,1.7,11.3,4.7l60.7,60.7c3,3,4.7,7,4.7,11.3c0,4.3-1.7,8.3-4.7,11.3
			C204.9,386.5,200.9,388.2,196.6,388.2z M135.9,297c-3.9,0-7.5,1.5-10.2,4.2c-2.7,2.7-4.2,6.4-4.2,10.2c0,3.9,1.5,7.5,4.2,10.2
			l60.7,60.7c2.7,2.7,6.4,4.2,10.2,4.2c3.9,0,7.5-1.5,10.2-4.2c2.7-2.7,4.2-6.4,4.2-10.2c0-3.9-1.5-7.5-4.2-10.2l-60.7-60.7
			C143.4,298.5,139.8,297,135.9,297z M196.9,383.4c-2.9,0-5.6-1.1-7.7-3.2c-4.2-4.2-4.2-11.1,0-15.4c2.1-2.1,4.8-3.2,7.7-3.2
			c2.9,0,5.6,1.1,7.7,3.2c4.2,4.2,4.2,11.1,0,15.4C202.5,382.3,199.8,383.4,196.9,383.4z M196.9,363.2c-2.5,0-4.9,1-6.6,2.7
			c-3.7,3.7-3.7,9.6,0,13.2c1.8,1.8,4.1,2.7,6.6,2.7c2.5,0,4.9-1,6.6-2.7c3.7-3.7,3.7-9.6,0-13.2
			C201.7,364.1,199.4,363.2,196.9,363.2z M135.9,322.4c-2.9,0-5.6-1.1-7.7-3.2c-4.2-4.2-4.2-11.1,0-15.4c2.1-2.1,4.8-3.2,7.7-3.2
			c2.9,0,5.6,1.1,7.7,3.2c4.2,4.2,4.2,11.1,0,15.4C141.6,321.3,138.8,322.4,135.9,322.4z M135.9,302.2c-2.5,0-4.9,1-6.6,2.7
			c-3.6,3.7-3.6,9.6,0,13.2c1.8,1.8,4.1,2.7,6.6,2.7c2.5,0,4.9-1,6.6-2.7c3.6-3.7,3.6-9.6,0-13.2
			C140.8,303.2,138.4,302.2,135.9,302.2z"/>
	</g>
</g>
<g>
	<g>
		<path class="st2" d="M197.3,388.2c-4.3,0-8.3-1.7-11.3-4.7c-3-3-4.7-7-4.7-11.3c0-4.3,1.7-8.3,4.7-11.3l60.7-60.7
			c3-3,7-4.7,11.3-4.7c4.3,0,8.3,1.7,11.3,4.7c3,3,4.7,7,4.7,11.3c0,4.3-1.7,8.3-4.7,11.3l-60.7,60.7
			C205.6,386.5,201.6,388.2,197.3,388.2z M258,297c-3.9,0-7.5,1.5-10.2,4.2L187.1,362c-2.7,2.7-4.2,6.4-4.2,10.2
			c0,3.9,1.5,7.5,4.2,10.2c2.7,2.7,6.4,4.2,10.2,4.2c3.9,0,7.5-1.5,10.2-4.2l60.7-60.7c2.7-2.7,4.2-6.4,4.2-10.2
			c0-3.9-1.5-7.5-4.2-10.2C265.5,298.5,261.9,297,258,297z M197,383.4c-2.9,0-5.6-1.1-7.7-3.2c-4.2-4.2-4.2-11.1,0-15.4
			c2.1-2.1,4.8-3.2,7.7-3.2c2.9,0,5.6,1.1,7.7,3.2c4.2,4.2,4.2,11.1,0,15.4C202.6,382.3,199.9,383.4,197,383.4z M197,363.1
			c-2.5,0-4.9,1-6.6,2.7c-3.7,3.7-3.7,9.6,0,13.2c1.8,1.8,4.1,2.7,6.6,2.7c2.5,0,4.9-1,6.6-2.7c3.7-3.7,3.7-9.6,0-13.2
			C201.8,364.1,199.5,363.1,197,363.1z M257.9,322.4c-2.9,0-5.6-1.1-7.7-3.2c-4.2-4.2-4.2-11.1,0-15.4c2.1-2.1,4.8-3.2,7.7-3.2
			c2.9,0,5.6,1.1,7.7,3.2c4.2,4.2,4.2,11.1,0,15.4C263.6,321.3,260.8,322.4,257.9,322.4z M257.9,302.2c-2.5,0-4.9,1-6.6,2.7
			c-3.6,3.7-3.7,9.6,0,13.2c1.8,1.8,4.1,2.7,6.6,2.7c2.5,0,4.9-1,6.6-2.7c3.6-3.7,3.6-9.6,0-13.2
			C262.8,303.2,260.4,302.2,257.9,302.2z"/>
	</g>
</g>
<g>
	<g>
		<path class="st2" d="M258,448.7c-8.8,0-16-7.2-16-16V311.5c0-8.8,7.2-16,16-16c8.8,0,16,7.2,16,16v121.2
			C274,441.5,266.8,448.7,258,448.7z M258,297c-8,0-14.5,6.5-14.5,14.5v121.2c0,8,6.5,14.5,14.5,14.5c8,0,14.5-6.5,14.5-14.5V311.5
			C272.5,303.5,266,297,258,297z M258,444.1c-6,0-10.9-4.9-10.9-10.9c0-6,4.9-10.9,10.9-10.9c6,0,10.9,4.9,10.9,10.9
			C268.9,439.2,264,444.1,258,444.1z M258,423.8c-5.2,0-9.4,4.2-9.4,9.4c0,5.2,4.2,9.4,9.4,9.4c5.2,0,9.4-4.2,9.4-9.4
			C267.4,428,263.2,423.8,258,423.8z M258,322.4c-6,0-10.9-4.9-10.9-10.9c0-6,4.9-10.9,10.9-10.9c6,0,10.9,4.9,10.9,10.9
			C268.9,317.6,264,322.4,258,322.4z M258,302.2c-5.2,0-9.4,4.2-9.4,9.4s4.2,9.4,9.4,9.4c5.2,0,9.4-4.2,9.4-9.4
			S263.2,302.2,258,302.2z"/>
	</g>
</g>
<g>
	<path class="st1" d="M119.9,572v-41c0-0.4,0.1-0.8,0.2-1.2c0.2-0.4,0.4-0.7,0.7-1c0.3-0.3,0.6-0.5,1-0.7c0.4-0.2,0.8-0.2,1.2-0.2
		c1.2,0,2.1,0.6,2.8,1.7l17.7,35.4l17.7-35.4c0.7-1.1,1.6-1.7,2.8-1.7c0.4,0,0.8,0.1,1.2,0.2c0.4,0.2,0.7,0.4,1,0.7
		c0.3,0.3,0.5,0.6,0.7,1c0.2,0.4,0.2,0.8,0.2,1.2v41c0,0.9-0.3,1.6-0.9,2.2c-0.6,0.6-1.3,0.9-2.2,0.9c-0.9,0-1.6-0.3-2.2-0.9
		c-0.6-0.6-0.9-1.3-0.9-2.2v-27.7l-14.6,29.2c-0.6,1-1.5,1.6-2.7,1.6c-1.3,0-2.3-0.6-2.9-1.9l-14.5-28.9V572c0,0.9-0.3,1.6-0.9,2.2
		c-0.6,0.6-1.3,0.9-2.2,0.9c-0.9,0-1.6-0.3-2.2-0.9C120.2,573.6,119.9,572.9,119.9,572z"/>
	<path class="st1" d="M169.7,570.6l15.8-40.5c0.6-1.4,1.6-2.1,3-2.1c1.4,0,2.4,0.7,3,2.1l15.8,40.7c0.2,0.4,0.2,0.8,0.2,1.3
		c0,0.9-0.3,1.6-0.9,2.2c-0.6,0.6-1.3,0.9-2.2,0.9c-0.9,0-1.6-0.3-2.2-0.9c-0.3-0.3-0.5-0.6-0.7-1l-5.5-14h-15.1l-5.5,14
		c-0.2,0.4-0.4,0.7-0.7,1c-0.6,0.6-1.3,0.9-2.2,0.9c-0.9,0-1.6-0.3-2.2-0.9c-0.6-0.6-0.9-1.3-0.9-2.2
		C169.3,571.6,169.4,571.1,169.7,570.6z M193.5,553l-5.1-13.2l-5.1,13.2H193.5z"/>
	<path class="st1" d="M209.3,531.1c0-0.9,0.3-1.6,0.9-2.2c0.6-0.6,1.3-0.9,2.2-0.9c0.9,0,1.6,0.3,2.2,0.9c0.6,0.6,0.9,1.4,0.9,2.2
		v17.5l19.6-19.6c0.7-0.7,1.4-1,2.3-1c0.4,0,0.8,0.1,1.2,0.2c0.4,0.2,0.7,0.4,1,0.7c0.3,0.3,0.5,0.6,0.7,1c0.2,0.4,0.2,0.8,0.2,1.2
		c0,0.9-0.3,1.6-0.9,2.2l-15.5,15.5l15.8,21.4c0.4,0.6,0.6,1.1,0.6,1.8c0,0.4-0.1,0.8-0.2,1.2c-0.2,0.4-0.4,0.7-0.7,1
		c-0.3,0.3-0.6,0.5-1,0.7c-0.4,0.2-0.8,0.3-1.2,0.3c-1.2,0-2-0.4-2.6-1.3l-15.2-20.6l-4.2,4.2V572c0,0.9-0.3,1.6-0.9,2.2
		c-0.6,0.6-1.3,0.9-2.2,0.9c-0.9,0-1.6-0.3-2.2-0.9c-0.6-0.6-0.9-1.3-0.9-2.2V531.1z"/>
	<path class="st1" d="M272.8,568.9c0.9,0,1.6,0.3,2.2,0.9c0.6,0.6,0.9,1.3,0.9,2.2c0,0.9-0.3,1.6-0.9,2.2c-0.6,0.6-1.3,0.9-2.2,0.9
		h-27.3c-0.5,0-0.9-0.1-1.2-0.2c-0.4-0.2-0.7-0.4-1-0.7c-0.3-0.3-0.5-0.6-0.7-1c-0.2-0.4-0.2-0.8-0.2-1.2v-41c0-0.4,0.1-0.8,0.2-1.2
		c0.2-0.4,0.4-0.7,0.7-1c0.3-0.3,0.6-0.5,1-0.7c0.4-0.2,0.8-0.2,1.2-0.2h27.3c0.9,0,1.6,0.3,2.2,0.9c0.6,0.6,0.9,1.4,0.9,2.2
		c0,0.9-0.3,1.6-0.9,2.2c-0.6,0.6-1.3,0.9-2.2,0.9h-24.2v14.2H266c0.9,0,1.6,0.3,2.2,0.9c0.6,0.6,0.9,1.3,0.9,2.2
		c0,0.9-0.3,1.6-0.9,2.2c-0.6,0.6-1.3,0.9-2.2,0.9h-17.3v14.2H272.8z"/>
</g>
<g>
	<g>
		<path class="st0" d="M274.3,528h31.9c0.4,0,0.8,0.1,1.2,0.2c0.4,0.2,0.7,0.4,1,0.7c0.3,0.3,0.5,0.6,0.7,1c0.2,0.4,0.2,0.8,0.2,1.2
			c0,0.7-0.2,1.3-0.6,1.8l-28,36h25.5c0.9,0,1.6,0.3,2.2,0.9c0.6,0.6,0.9,1.3,0.9,2.2c0,0.9-0.3,1.6-0.9,2.2
			c-0.6,0.6-1.3,0.9-2.2,0.9h-31.9c-0.5,0-0.9-0.1-1.2-0.2c-0.4-0.2-0.7-0.4-1-0.7c-0.3-0.3-0.5-0.6-0.7-1c-0.2-0.4-0.2-0.8-0.2-1.2
			c0-0.7,0.2-1.4,0.7-1.9l27.9-35.9h-25.5c-0.8,0-1.6-0.3-2.2-0.9c-0.6-0.6-0.9-1.3-0.9-2.2c0-0.9,0.3-1.6,0.9-2.2
			C272.8,528.3,273.5,528,274.3,528z"/>
		<path class="st0" d="M317.5,531.1v27.3c0,1.4,0.3,2.8,0.8,4.1c0.6,1.3,1.3,2.4,2.2,3.4c0.9,1,2.1,1.7,3.3,2.3
			c1.3,0.6,2.6,0.8,4.1,0.8c1.5,0,2.8-0.3,4.1-0.8c1.3-0.6,2.4-1.3,3.3-2.3c1-1,1.7-2.1,2.3-3.4c0.6-1.3,0.8-2.6,0.8-4.1v-27.3
			c0-0.9,0.3-1.6,0.9-2.2c0.6-0.6,1.3-0.9,2.2-0.9c0.9,0,1.6,0.3,2.2,0.9c0.6,0.6,0.9,1.4,0.9,2.2v27.3c0,1.5-0.2,3-0.6,4.4
			c-0.4,1.4-1,2.8-1.7,4c-0.7,1.2-1.6,2.4-2.6,3.4s-2.2,1.9-3.4,2.6c-1.3,0.7-2.6,1.3-4,1.7c-1.4,0.4-2.9,0.6-4.4,0.6
			c-4.6,0-8.6-1.6-11.8-4.9c-3.3-3.3-4.9-7.2-4.9-11.9v-27.3c0-0.9,0.3-1.6,0.9-2.2c0.6-0.6,1.3-0.9,2.2-0.9c0.9,0,1.6,0.3,2.2,0.9
			C317.2,529.5,317.5,530.2,317.5,531.1z"/>
		<path class="st0" d="M346.6,572v-41c0-0.4,0.1-0.8,0.2-1.2c0.2-0.4,0.4-0.7,0.7-1c0.3-0.3,0.6-0.5,1-0.7c0.4-0.2,0.8-0.2,1.2-0.2
			h11.4c2,0,3.9,0.4,5.6,1.2c1.8,0.8,3.3,1.8,4.6,3.1c1.3,1.3,2.3,2.9,3.1,4.6c0.8,1.8,1.1,3.6,1.1,5.6c0,1.3-0.2,2.6-0.5,3.8
			c-0.3,1.2-0.8,2.4-1.4,3.5c-0.6,1.1-1.4,2.1-2.4,3c-1,0.9-2.1,1.8-3.3,2.5l9.4,15.1c0.3,0.6,0.5,1.1,0.5,1.7
			c0,0.5-0.1,0.9-0.2,1.2c-0.2,0.4-0.4,0.7-0.7,1c-0.3,0.3-0.6,0.5-1,0.7c-0.4,0.2-0.8,0.2-1.2,0.2c-1.1,0-2-0.5-2.7-1.5L361.6,557
			h-8.8V572c0,0.9-0.3,1.6-0.9,2.2c-0.6,0.6-1.3,0.9-2.2,0.9c-0.9,0-1.6-0.3-2.2-0.9C346.9,573.6,346.6,572.9,346.6,572z
			 M352.8,534.2v16.5h8.3c1.1,0,2.2-0.2,3.2-0.7c1-0.4,1.9-1,2.6-1.8c0.7-0.8,1.3-1.6,1.8-2.6c0.4-1,0.6-2.1,0.6-3.2
			c0-1.1-0.2-2.2-0.6-3.2c-0.4-1-1-1.9-1.8-2.6c-0.8-0.7-1.6-1.3-2.6-1.8c-1-0.4-2.1-0.7-3.2-0.7H352.8z"/>
		<path class="st0" d="M387.9,572c0,0.9-0.3,1.6-0.9,2.2c-0.6,0.6-1.3,0.9-2.2,0.9c-0.9,0-1.6-0.3-2.2-0.9c-0.6-0.6-0.9-1.3-0.9-2.2
			v-41c0-0.9,0.3-1.6,0.9-2.2c0.6-0.6,1.3-0.9,2.2-0.9c0.9,0,1.6,0.3,2.2,0.9c0.6,0.6,0.9,1.4,0.9,2.2V572z"/>
		<path class="st0" d="M427.7,564.5c0.4,0,0.8,0.1,1.2,0.2c0.4,0.2,0.7,0.4,1,0.7c0.3,0.3,0.5,0.6,0.7,1c0.2,0.4,0.3,0.8,0.3,1.2
			c0,0.8-0.3,1.6-1,2.2c-4.4,3.5-9.3,5.3-14.8,5.3c-6.5,0-12.1-2.3-16.7-6.9c-4.6-4.6-6.9-10.2-6.9-16.7c0-6.5,2.3-12.1,6.9-16.7
			c4.6-4.6,10.2-6.9,16.7-6.9c5.6,0,10.6,1.8,15.1,5.5c0.6,0.5,0.8,1.3,0.8,2.2c0,0.5-0.1,0.9-0.2,1.2c-0.2,0.4-0.4,0.7-0.7,1
			c-0.3,0.3-0.6,0.5-1,0.7c-0.4,0.2-0.8,0.2-1.2,0.2c-0.8,0-1.5-0.3-2.2-0.9c-1.5-1.2-3.1-2.1-4.9-2.7c-1.8-0.6-3.7-0.9-5.7-0.9
			c-4.8,0-8.9,1.7-12.3,5.1c-3.4,3.4-5,7.4-5,12.2c0,4.8,1.7,8.9,5,12.3c3.4,3.4,7.5,5.1,12.3,5.1c4.1,0,7.7-1.3,10.9-3.8
			C426.4,564.7,427,564.6,427.7,564.5z"/>
		<path class="st0" d="M466.1,572c0,0.9-0.3,1.6-0.9,2.2c-0.6,0.6-1.3,0.9-2.2,0.9c-0.9,0-1.6-0.3-2.2-0.9c-0.6-0.6-0.9-1.3-0.9-2.2
			v-17.3h-21V572c0,0.9-0.3,1.6-0.9,2.2c-0.6,0.6-1.3,0.9-2.2,0.9c-0.9,0-1.6-0.3-2.2-0.9c-0.6-0.6-0.9-1.3-0.9-2.2v-41
			c0-0.9,0.3-1.6,0.9-2.2c0.6-0.6,1.3-0.9,2.2-0.9c0.9,0,1.6,0.3,2.2,0.9c0.6,0.6,0.9,1.4,0.9,2.2v17.3h21v-17.3
			c0-0.9,0.3-1.6,0.9-2.2c0.6-0.6,1.3-0.9,2.2-0.9c0.9,0,1.6,0.3,2.2,0.9c0.6,0.6,0.9,1.4,0.9,2.2V572z"/>
	</g>
</g>
<g>
	<path class="st0" d="M213.1,588.9c0.4-0.4,0.8-0.6,1.3-0.6c0.5,0,1,0.2,1.3,0.6c0.4,0.4,0.5,0.8,0.5,1.3c0,0.5-0.2,1-0.5,1.3
		c-0.4,0.4-0.8,0.6-1.3,0.6c-0.5,0-1-0.2-1.3-0.6c-0.4-0.4-0.5-0.8-0.5-1.3C212.6,589.7,212.7,589.3,213.1,588.9z M213.1,596.3
		c0.4-0.4,0.8-0.5,1.3-0.5c0.5,0,1,0.2,1.3,0.5c0.4,0.4,0.5,0.8,0.5,1.3c0,0.5-0.2,1-0.5,1.3c-0.4,0.4-0.8,0.5-1.3,0.5
		c-0.5,0-1-0.2-1.3-0.5c-0.4-0.4-0.5-0.8-0.5-1.3C212.6,597.1,212.7,596.7,213.1,596.3z"/>
</g>
<path class="st0" d="M220.7,596.1c0.4-0.4,0.9-0.6,1.4-0.6c0.6,0,1,0.2,1.4,0.6c0.4,0.4,0.6,0.9,0.6,1.4c0,0.6-0.2,1-0.6,1.4
	c-0.4,0.4-0.9,0.6-1.4,0.6c-0.6,0-1-0.2-1.4-0.6c-0.4-0.4-0.6-0.9-0.6-1.4C220.1,597,220.3,596.5,220.7,596.1z"/>
<path class="st0" d="M228.6,588.9c0.4-0.4,0.8-0.6,1.3-0.6c0.5,0,1,0.2,1.3,0.6c0.4,0.4,0.5,0.8,0.5,1.3c0,0.5-0.2,1-0.5,1.3
	c-0.4,0.4-0.8,0.6-1.3,0.6c-0.5,0-1-0.2-1.3-0.6c-0.4-0.4-0.5-0.8-0.5-1.3C228,589.7,228.2,589.3,228.6,588.9z M228.6,596.3
	c0.4-0.4,0.8-0.5,1.3-0.5c0.5,0,1,0.2,1.3,0.5c0.4,0.4,0.5,0.8,0.5,1.3c0,0.5-0.2,1-0.5,1.3c-0.4,0.4-0.8,0.5-1.3,0.5
	c-0.5,0-1-0.2-1.3-0.5c-0.4-0.4-0.5-0.8-0.5-1.3C228,597.1,228.2,596.7,228.6,596.3z"/>
<g>
	<path class="st0" d="M236.3,588.9c0.4-0.4,0.8-0.6,1.3-0.6c0.5,0,1,0.2,1.3,0.6c0.4,0.4,0.5,0.8,0.5,1.3c0,0.5-0.2,1-0.5,1.3
		c-0.4,0.4-0.8,0.6-1.3,0.6c-0.5,0-1-0.2-1.3-0.6c-0.4-0.4-0.5-0.8-0.5-1.3C235.7,589.7,235.9,589.3,236.3,588.9z M236.3,596.3
		c0.4-0.4,0.8-0.5,1.3-0.5c0.5,0,1,0.2,1.3,0.5c0.4,0.4,0.5,0.8,0.5,1.3c0,0.5-0.2,1-0.5,1.3c-0.4,0.4-0.8,0.5-1.3,0.5
		c-0.5,0-1-0.2-1.3-0.5c-0.4-0.4-0.5-0.8-0.5-1.3C235.7,597.1,235.9,596.7,236.3,596.3z"/>
</g>
<path class="st0" d="M243.9,596.1c0.4-0.4,0.9-0.6,1.4-0.6c0.6,0,1,0.2,1.4,0.6c0.4,0.4,0.6,0.9,0.6,1.4c0,0.6-0.2,1-0.6,1.4
	c-0.4,0.4-0.9,0.6-1.4,0.6c-0.6,0-1-0.2-1.4-0.6c-0.4-0.4-0.6-0.9-0.6-1.4C243.3,597,243.5,596.5,243.9,596.1z"/>
<path class="st0" d="M251.7,588.9c0.4-0.4,0.8-0.6,1.3-0.6c0.5,0,1,0.2,1.3,0.6c0.4,0.4,0.5,0.8,0.5,1.3s-0.2,1-0.5,1.3
	c-0.4,0.4-0.8,0.6-1.3,0.6c-0.5,0-1-0.2-1.3-0.6c-0.4-0.4-0.5-0.8-0.5-1.3S251.4,589.3,251.7,588.9z M251.7,596.3
	c0.4-0.4,0.8-0.5,1.3-0.5c0.5,0,1,0.2,1.3,0.5c0.4,0.4,0.5,0.8,0.5,1.3c0,0.5-0.2,1-0.5,1.3c-0.4,0.4-0.8,0.5-1.3,0.5
	c-0.5,0-1-0.2-1.3-0.5c-0.4-0.4-0.5-0.8-0.5-1.3C251.2,597.1,251.4,596.7,251.7,596.3z"/>
<g>
	<path class="st0" d="M166.8,588.9c0.4-0.4,0.8-0.6,1.3-0.6c0.5,0,1,0.2,1.3,0.6c0.4,0.4,0.5,0.8,0.5,1.3c0,0.5-0.2,1-0.5,1.3
		c-0.4,0.4-0.8,0.6-1.3,0.6c-0.5,0-1-0.2-1.3-0.6c-0.4-0.4-0.5-0.8-0.5-1.3C166.2,589.7,166.4,589.3,166.8,588.9z M166.8,596.3
		c0.4-0.4,0.8-0.5,1.3-0.5c0.5,0,1,0.2,1.3,0.5c0.4,0.4,0.5,0.8,0.5,1.3c0,0.5-0.2,1-0.5,1.3c-0.4,0.4-0.8,0.5-1.3,0.5
		c-0.5,0-1-0.2-1.3-0.5c-0.4-0.4-0.5-0.8-0.5-1.3C166.2,597.1,166.4,596.7,166.8,596.3z"/>
</g>
<path class="st0" d="M174.4,596.1c0.4-0.4,0.9-0.6,1.4-0.6c0.6,0,1,0.2,1.4,0.6c0.4,0.4,0.6,0.9,0.6,1.4c0,0.6-0.2,1-0.6,1.4
	c-0.4,0.4-0.9,0.6-1.4,0.6c-0.6,0-1-0.2-1.4-0.6c-0.4-0.4-0.6-0.9-0.6-1.4C173.8,597,174,596.5,174.4,596.1z"/>
<path class="st0" d="M182.2,588.9c0.4-0.4,0.8-0.6,1.3-0.6c0.5,0,1,0.2,1.3,0.6c0.4,0.4,0.5,0.8,0.5,1.3c0,0.5-0.2,1-0.5,1.3
	c-0.4,0.4-0.8,0.6-1.3,0.6c-0.5,0-1-0.2-1.3-0.6c-0.4-0.4-0.5-0.8-0.5-1.3C181.7,589.7,181.8,589.3,182.2,588.9z M182.2,596.3
	c0.4-0.4,0.8-0.5,1.3-0.5c0.5,0,1,0.2,1.3,0.5c0.4,0.4,0.5,0.8,0.5,1.3c0,0.5-0.2,1-0.5,1.3c-0.4,0.4-0.8,0.5-1.3,0.5
	c-0.5,0-1-0.2-1.3-0.5c-0.4-0.4-0.5-0.8-0.5-1.3C181.7,597.1,181.8,596.7,182.2,596.3z"/>
<g>
	<path class="st0" d="M189.9,588.9c0.4-0.4,0.8-0.6,1.3-0.6c0.5,0,1,0.2,1.3,0.6c0.4,0.4,0.5,0.8,0.5,1.3c0,0.5-0.2,1-0.5,1.3
		c-0.4,0.4-0.8,0.6-1.3,0.6c-0.5,0-1-0.2-1.3-0.6c-0.4-0.4-0.5-0.8-0.5-1.3C189.4,589.7,189.6,589.3,189.9,588.9z M189.9,596.3
		c0.4-0.4,0.8-0.5,1.3-0.5c0.5,0,1,0.2,1.3,0.5c0.4,0.4,0.5,0.8,0.5,1.3c0,0.5-0.2,1-0.5,1.3c-0.4,0.4-0.8,0.5-1.3,0.5
		c-0.5,0-1-0.2-1.3-0.5c-0.4-0.4-0.5-0.8-0.5-1.3C189.4,597.1,189.6,596.7,189.9,596.3z"/>
</g>
<path class="st0" d="M197.6,596.1c0.4-0.4,0.9-0.6,1.4-0.6c0.6,0,1,0.2,1.4,0.6c0.4,0.4,0.6,0.9,0.6,1.4c0,0.6-0.2,1-0.6,1.4
	c-0.4,0.4-0.9,0.6-1.4,0.6c-0.6,0-1-0.2-1.4-0.6c-0.4-0.4-0.6-0.9-0.6-1.4C197,597,197.2,596.5,197.6,596.1z"/>
<path class="st0" d="M205.4,588.9c0.4-0.4,0.8-0.6,1.3-0.6c0.5,0,1,0.2,1.3,0.6c0.4,0.4,0.5,0.8,0.5,1.3c0,0.5-0.2,1-0.5,1.3
	c-0.4,0.4-0.8,0.6-1.3,0.6c-0.5,0-1-0.2-1.3-0.6c-0.4-0.4-0.5-0.8-0.5-1.3C204.8,589.7,205,589.3,205.4,588.9z M205.4,596.3
	c0.4-0.4,0.8-0.5,1.3-0.5c0.5,0,1,0.2,1.3,0.5c0.4,0.4,0.5,0.8,0.5,1.3c0,0.5-0.2,1-0.5,1.3c-0.4,0.4-0.8,0.5-1.3,0.5
	c-0.5,0-1-0.2-1.3-0.5c-0.4-0.4-0.5-0.8-0.5-1.3C204.8,597.1,205,596.7,205.4,596.3z"/>
<g>
	<path class="st0" d="M120.4,588.9c0.4-0.4,0.8-0.6,1.3-0.6c0.5,0,1,0.2,1.3,0.6c0.4,0.4,0.5,0.8,0.5,1.3c0,0.5-0.2,1-0.5,1.3
		c-0.4,0.4-0.8,0.6-1.3,0.6c-0.5,0-1-0.2-1.3-0.6c-0.4-0.4-0.5-0.8-0.5-1.3C119.9,589.7,120.1,589.3,120.4,588.9z M120.4,596.3
		c0.4-0.4,0.8-0.5,1.3-0.5c0.5,0,1,0.2,1.3,0.5c0.4,0.4,0.5,0.8,0.5,1.3c0,0.5-0.2,1-0.5,1.3c-0.4,0.4-0.8,0.5-1.3,0.5
		c-0.5,0-1-0.2-1.3-0.5c-0.4-0.4-0.5-0.8-0.5-1.3C119.9,597.1,120.1,596.7,120.4,596.3z"/>
</g>
<path class="st0" d="M128,596.1c0.4-0.4,0.9-0.6,1.4-0.6c0.6,0,1,0.2,1.4,0.6c0.4,0.4,0.6,0.9,0.6,1.4c0,0.6-0.2,1-0.6,1.4
	c-0.4,0.4-0.9,0.6-1.4,0.6c-0.6,0-1-0.2-1.4-0.6c-0.4-0.4-0.6-0.9-0.6-1.4C127.5,597,127.7,596.5,128,596.1z"/>
<path class="st0" d="M135.9,588.9c0.4-0.4,0.8-0.6,1.3-0.6c0.5,0,1,0.2,1.3,0.6c0.4,0.4,0.5,0.8,0.5,1.3c0,0.5-0.2,1-0.5,1.3
	c-0.4,0.4-0.8,0.6-1.3,0.6c-0.5,0-1-0.2-1.3-0.6c-0.4-0.4-0.5-0.8-0.5-1.3C135.3,589.7,135.5,589.3,135.9,588.9z M135.9,596.3
	c0.4-0.4,0.8-0.5,1.3-0.5c0.5,0,1,0.2,1.3,0.5c0.4,0.4,0.5,0.8,0.5,1.3c0,0.5-0.2,1-0.5,1.3c-0.4,0.4-0.8,0.5-1.3,0.5
	c-0.5,0-1-0.2-1.3-0.5c-0.4-0.4-0.5-0.8-0.5-1.3C135.3,597.1,135.5,596.7,135.9,596.3z"/>
<g>
	<path class="st0" d="M143.6,588.9c0.4-0.4,0.8-0.6,1.3-0.6c0.5,0,1,0.2,1.3,0.6c0.4,0.4,0.5,0.8,0.5,1.3c0,0.5-0.2,1-0.5,1.3
		c-0.4,0.4-0.8,0.6-1.3,0.6c-0.5,0-1-0.2-1.3-0.6c-0.4-0.4-0.5-0.8-0.5-1.3C143.1,589.7,143.2,589.3,143.6,588.9z M143.6,596.3
		c0.4-0.4,0.8-0.5,1.3-0.5c0.5,0,1,0.2,1.3,0.5c0.4,0.4,0.5,0.8,0.5,1.3c0,0.5-0.2,1-0.5,1.3c-0.4,0.4-0.8,0.5-1.3,0.5
		c-0.5,0-1-0.2-1.3-0.5c-0.4-0.4-0.5-0.8-0.5-1.3C143.1,597.1,143.2,596.7,143.6,596.3z"/>
</g>
<path class="st0" d="M151.2,596.1c0.4-0.4,0.9-0.6,1.4-0.6c0.6,0,1,0.2,1.4,0.6c0.4,0.4,0.6,0.9,0.6,1.4c0,0.6-0.2,1-0.6,1.4
	c-0.4,0.4-0.9,0.6-1.4,0.6c-0.6,0-1-0.2-1.4-0.6c-0.4-0.4-0.6-0.9-0.6-1.4C150.6,597,150.8,596.5,151.2,596.1z"/>
<path class="st0" d="M159,588.9c0.4-0.4,0.8-0.6,1.3-0.6c0.5,0,1,0.2,1.3,0.6c0.4,0.4,0.5,0.8,0.5,1.3c0,0.5-0.2,1-0.5,1.3
	c-0.4,0.4-0.8,0.6-1.3,0.6c-0.5,0-1-0.2-1.3-0.6c-0.4-0.4-0.5-0.8-0.5-1.3C158.5,589.7,158.7,589.3,159,588.9z M159,596.3
	c0.4-0.4,0.8-0.5,1.3-0.5c0.5,0,1,0.2,1.3,0.5c0.4,0.4,0.5,0.8,0.5,1.3c0,0.5-0.2,1-0.5,1.3c-0.4,0.4-0.8,0.5-1.3,0.5
	c-0.5,0-1-0.2-1.3-0.5c-0.4-0.4-0.5-0.8-0.5-1.3C158.5,597.1,158.7,596.7,159,596.3z"/>
<g>
	<path class="st1" d="M424.3,588.9c0.4-0.4,0.8-0.6,1.3-0.6c0.5,0,1,0.2,1.3,0.6c0.4,0.4,0.5,0.8,0.5,1.3c0,0.5-0.2,1-0.5,1.3
		c-0.4,0.4-0.8,0.6-1.3,0.6c-0.5,0-1-0.2-1.3-0.6c-0.4-0.4-0.5-0.8-0.5-1.3C423.7,589.7,423.9,589.3,424.3,588.9z M424.3,596.3
		c0.4-0.4,0.8-0.5,1.3-0.5c0.5,0,1,0.2,1.3,0.5c0.4,0.4,0.5,0.8,0.5,1.3c0,0.5-0.2,1-0.5,1.3c-0.4,0.4-0.8,0.5-1.3,0.5
		c-0.5,0-1-0.2-1.3-0.5c-0.4-0.4-0.5-0.8-0.5-1.3C423.7,597.1,423.9,596.7,424.3,596.3z"/>
</g>
<path class="st1" d="M431.9,596.1c0.4-0.4,0.9-0.6,1.4-0.6c0.6,0,1,0.2,1.4,0.6c0.4,0.4,0.6,0.9,0.6,1.4c0,0.6-0.2,1-0.6,1.4
	c-0.4,0.4-0.9,0.6-1.4,0.6c-0.6,0-1-0.2-1.4-0.6c-0.4-0.4-0.6-0.9-0.6-1.4C431.3,597,431.5,596.5,431.9,596.1z"/>
<path class="st1" d="M439.7,588.9c0.4-0.4,0.8-0.6,1.3-0.6c0.5,0,1,0.2,1.3,0.6c0.4,0.4,0.5,0.8,0.5,1.3c0,0.5-0.2,1-0.5,1.3
	c-0.4,0.4-0.8,0.6-1.3,0.6c-0.5,0-1-0.2-1.3-0.6c-0.4-0.4-0.5-0.8-0.5-1.3C439.2,589.7,439.4,589.3,439.7,588.9z M439.7,596.3
	c0.4-0.4,0.8-0.5,1.3-0.5c0.5,0,1,0.2,1.3,0.5c0.4,0.4,0.5,0.8,0.5,1.3c0,0.5-0.2,1-0.5,1.3c-0.4,0.4-0.8,0.5-1.3,0.5
	c-0.5,0-1-0.2-1.3-0.5c-0.4-0.4-0.5-0.8-0.5-1.3C439.2,597.1,439.4,596.7,439.7,596.3z"/>
<g>
	<path class="st1" d="M447.5,588.9c0.4-0.4,0.8-0.6,1.3-0.6c0.5,0,1,0.2,1.3,0.6c0.4,0.4,0.5,0.8,0.5,1.3c0,0.5-0.2,1-0.5,1.3
		c-0.4,0.4-0.8,0.6-1.3,0.6c-0.5,0-1-0.2-1.3-0.6c-0.4-0.4-0.5-0.8-0.5-1.3C446.9,589.7,447.1,589.3,447.5,588.9z M447.5,596.3
		c0.4-0.4,0.8-0.5,1.3-0.5c0.5,0,1,0.2,1.3,0.5c0.4,0.4,0.5,0.8,0.5,1.3c0,0.5-0.2,1-0.5,1.3c-0.4,0.4-0.8,0.5-1.3,0.5
		c-0.5,0-1-0.2-1.3-0.5c-0.4-0.4-0.5-0.8-0.5-1.3C446.9,597.1,447.1,596.7,447.5,596.3z"/>
</g>
<path class="st1" d="M455.1,596.1c0.4-0.4,0.9-0.6,1.4-0.6c0.6,0,1,0.2,1.4,0.6c0.4,0.4,0.6,0.9,0.6,1.4c0,0.6-0.2,1-0.6,1.4
	c-0.4,0.4-0.9,0.6-1.4,0.6c-0.6,0-1-0.2-1.4-0.6c-0.4-0.4-0.6-0.9-0.6-1.4C454.5,597,454.7,596.5,455.1,596.1z"/>
<path class="st1" d="M462.9,588.9c0.4-0.4,0.8-0.6,1.3-0.6c0.5,0,1,0.2,1.3,0.6c0.4,0.4,0.5,0.8,0.5,1.3s-0.2,1-0.5,1.3
	c-0.4,0.4-0.8,0.6-1.3,0.6c-0.5,0-1-0.2-1.3-0.6c-0.4-0.4-0.5-0.8-0.5-1.3S462.5,589.3,462.9,588.9z M462.9,596.3
	c0.4-0.4,0.8-0.5,1.3-0.5c0.5,0,1,0.2,1.3,0.5c0.4,0.4,0.5,0.8,0.5,1.3c0,0.5-0.2,1-0.5,1.3c-0.4,0.4-0.8,0.5-1.3,0.5
	c-0.5,0-1-0.2-1.3-0.5c-0.4-0.4-0.5-0.8-0.5-1.3C462.4,597.1,462.5,596.7,462.9,596.3z"/>
<g>
	<path class="st1" d="M377.9,588.9c0.4-0.4,0.8-0.6,1.3-0.6c0.5,0,1,0.2,1.3,0.6c0.4,0.4,0.5,0.8,0.5,1.3c0,0.5-0.2,1-0.5,1.3
		c-0.4,0.4-0.8,0.6-1.3,0.6c-0.5,0-1-0.2-1.3-0.6c-0.4-0.4-0.5-0.8-0.5-1.3C377.4,589.7,377.6,589.3,377.9,588.9z M377.9,596.3
		c0.4-0.4,0.8-0.5,1.3-0.5c0.5,0,1,0.2,1.3,0.5c0.4,0.4,0.5,0.8,0.5,1.3c0,0.5-0.2,1-0.5,1.3c-0.4,0.4-0.8,0.5-1.3,0.5
		c-0.5,0-1-0.2-1.3-0.5c-0.4-0.4-0.5-0.8-0.5-1.3C377.4,597.1,377.6,596.7,377.9,596.3z"/>
</g>
<path class="st1" d="M385.6,596.1c0.4-0.4,0.9-0.6,1.4-0.6c0.6,0,1,0.2,1.4,0.6c0.4,0.4,0.6,0.9,0.6,1.4c0,0.6-0.2,1-0.6,1.4
	c-0.4,0.4-0.9,0.6-1.4,0.6c-0.6,0-1-0.2-1.4-0.6c-0.4-0.4-0.6-0.9-0.6-1.4C385,597,385.2,596.5,385.6,596.1z"/>
<path class="st1" d="M393.4,588.9c0.4-0.4,0.8-0.6,1.3-0.6c0.5,0,1,0.2,1.3,0.6c0.4,0.4,0.5,0.8,0.5,1.3c0,0.5-0.2,1-0.5,1.3
	c-0.4,0.4-0.8,0.6-1.3,0.6c-0.5,0-1-0.2-1.3-0.6c-0.4-0.4-0.5-0.8-0.5-1.3C392.8,589.7,393,589.3,393.4,588.9z M393.4,596.3
	c0.4-0.4,0.8-0.5,1.3-0.5c0.5,0,1,0.2,1.3,0.5c0.4,0.4,0.5,0.8,0.5,1.3c0,0.5-0.2,1-0.5,1.3c-0.4,0.4-0.8,0.5-1.3,0.5
	c-0.5,0-1-0.2-1.3-0.5c-0.4-0.4-0.5-0.8-0.5-1.3C392.8,597.1,393,596.7,393.4,596.3z"/>
<g>
	<path class="st1" d="M401.1,588.9c0.4-0.4,0.8-0.6,1.3-0.6c0.5,0,1,0.2,1.3,0.6c0.4,0.4,0.5,0.8,0.5,1.3c0,0.5-0.2,1-0.5,1.3
		c-0.4,0.4-0.8,0.6-1.3,0.6c-0.5,0-1-0.2-1.3-0.6c-0.4-0.4-0.5-0.8-0.5-1.3C400.6,589.7,400.8,589.3,401.1,588.9z M401.1,596.3
		c0.4-0.4,0.8-0.5,1.3-0.5c0.5,0,1,0.2,1.3,0.5c0.4,0.4,0.5,0.8,0.5,1.3c0,0.5-0.2,1-0.5,1.3c-0.4,0.4-0.8,0.5-1.3,0.5
		c-0.5,0-1-0.2-1.3-0.5c-0.4-0.4-0.5-0.8-0.5-1.3C400.6,597.1,400.8,596.7,401.1,596.3z"/>
</g>
<path class="st1" d="M408.7,596.1c0.4-0.4,0.9-0.6,1.4-0.6c0.6,0,1,0.2,1.4,0.6c0.4,0.4,0.6,0.9,0.6,1.4c0,0.6-0.2,1-0.6,1.4
	c-0.4,0.4-0.9,0.6-1.4,0.6c-0.6,0-1-0.2-1.4-0.6c-0.4-0.4-0.6-0.9-0.6-1.4C408.2,597,408.3,596.5,408.7,596.1z"/>
<path class="st1" d="M416.6,588.9c0.4-0.4,0.8-0.6,1.3-0.6c0.5,0,1,0.2,1.3,0.6c0.4,0.4,0.5,0.8,0.5,1.3c0,0.5-0.2,1-0.5,1.3
	c-0.4,0.4-0.8,0.6-1.3,0.6c-0.5,0-1-0.2-1.3-0.6c-0.4-0.4-0.5-0.8-0.5-1.3C416,589.7,416.2,589.3,416.6,588.9z M416.6,596.3
	c0.4-0.4,0.8-0.5,1.3-0.5c0.5,0,1,0.2,1.3,0.5c0.4,0.4,0.5,0.8,0.5,1.3c0,0.5-0.2,1-0.5,1.3c-0.4,0.4-0.8,0.5-1.3,0.5
	c-0.5,0-1-0.2-1.3-0.5c-0.4-0.4-0.5-0.8-0.5-1.3C416,597.1,416.2,596.7,416.6,596.3z"/>
<g>
	<path class="st1" d="M331.6,588.9c0.4-0.4,0.8-0.6,1.3-0.6c0.5,0,1,0.2,1.3,0.6c0.4,0.4,0.5,0.8,0.5,1.3c0,0.5-0.2,1-0.5,1.3
		c-0.4,0.4-0.8,0.6-1.3,0.6c-0.5,0-1-0.2-1.3-0.6c-0.4-0.4-0.5-0.8-0.5-1.3C331.1,589.7,331.2,589.3,331.6,588.9z M331.6,596.3
		c0.4-0.4,0.8-0.5,1.3-0.5c0.5,0,1,0.2,1.3,0.5c0.4,0.4,0.5,0.8,0.5,1.3c0,0.5-0.2,1-0.5,1.3c-0.4,0.4-0.8,0.5-1.3,0.5
		c-0.5,0-1-0.2-1.3-0.5c-0.4-0.4-0.5-0.8-0.5-1.3C331.1,597.1,331.2,596.7,331.6,596.3z"/>
</g>
<path class="st1" d="M339.2,596.1c0.4-0.4,0.9-0.6,1.4-0.6c0.6,0,1,0.2,1.4,0.6c0.4,0.4,0.6,0.9,0.6,1.4c0,0.6-0.2,1-0.6,1.4
	c-0.4,0.4-0.9,0.6-1.4,0.6c-0.6,0-1-0.2-1.4-0.6c-0.4-0.4-0.6-0.9-0.6-1.4C338.6,597,338.8,596.5,339.2,596.1z"/>
<path class="st1" d="M347,588.9c0.4-0.4,0.8-0.6,1.3-0.6c0.5,0,1,0.2,1.3,0.6c0.4,0.4,0.5,0.8,0.5,1.3c0,0.5-0.2,1-0.5,1.3
	c-0.4,0.4-0.8,0.6-1.3,0.6c-0.5,0-1-0.2-1.3-0.6c-0.4-0.4-0.5-0.8-0.5-1.3C346.5,589.7,346.7,589.3,347,588.9z M347,596.3
	c0.4-0.4,0.8-0.5,1.3-0.5c0.5,0,1,0.2,1.3,0.5c0.4,0.4,0.5,0.8,0.5,1.3c0,0.5-0.2,1-0.5,1.3c-0.4,0.4-0.8,0.5-1.3,0.5
	c-0.5,0-1-0.2-1.3-0.5c-0.4-0.4-0.5-0.8-0.5-1.3C346.5,597.1,346.7,596.7,347,596.3z"/>
<g>
	<path class="st1" d="M354.8,588.9c0.4-0.4,0.8-0.6,1.3-0.6c0.5,0,1,0.2,1.3,0.6c0.4,0.4,0.5,0.8,0.5,1.3c0,0.5-0.2,1-0.5,1.3
		c-0.4,0.4-0.8,0.6-1.3,0.6c-0.5,0-1-0.2-1.3-0.6c-0.4-0.4-0.5-0.8-0.5-1.3C354.2,589.7,354.4,589.3,354.8,588.9z M354.8,596.3
		c0.4-0.4,0.8-0.5,1.3-0.5c0.5,0,1,0.2,1.3,0.5c0.4,0.4,0.5,0.8,0.5,1.3c0,0.5-0.2,1-0.5,1.3c-0.4,0.4-0.8,0.5-1.3,0.5
		c-0.5,0-1-0.2-1.3-0.5c-0.4-0.4-0.5-0.8-0.5-1.3C354.2,597.1,354.4,596.7,354.8,596.3z"/>
</g>
<path class="st1" d="M362.4,596.1c0.4-0.4,0.9-0.6,1.4-0.6c0.6,0,1,0.2,1.4,0.6c0.4,0.4,0.6,0.9,0.6,1.4c0,0.6-0.2,1-0.6,1.4
	c-0.4,0.4-0.9,0.6-1.4,0.6c-0.6,0-1-0.2-1.4-0.6c-0.4-0.4-0.6-0.9-0.6-1.4C361.8,597,362,596.5,362.4,596.1z"/>
<path class="st1" d="M370.2,588.9c0.4-0.4,0.8-0.6,1.3-0.6c0.5,0,1,0.2,1.3,0.6c0.4,0.4,0.5,0.8,0.5,1.3c0,0.5-0.2,1-0.5,1.3
	c-0.4,0.4-0.8,0.6-1.3,0.6c-0.5,0-1-0.2-1.3-0.6c-0.4-0.4-0.5-0.8-0.5-1.3C369.7,589.7,369.9,589.3,370.2,588.9z M370.2,596.3
	c0.4-0.4,0.8-0.5,1.3-0.5c0.5,0,1,0.2,1.3,0.5c0.4,0.4,0.5,0.8,0.5,1.3c0,0.5-0.2,1-0.5,1.3c-0.4,0.4-0.8,0.5-1.3,0.5
	c-0.5,0-1-0.2-1.3-0.5c-0.4-0.4-0.5-0.8-0.5-1.3C369.7,597.1,369.9,596.7,370.2,596.3z"/>
<path class="st1" d="M479.9,289.4L479.9,289.4c-5.1-6.9-12.8-12.1-21.2-14.3c-0.2,0-0.4-0.1-0.6-0.1c-1.3,0-2.6,0.9-2.9,2.2
	c-0.3,0.9-0.2,1.8,0.2,2.6c0.4,0.7,1.1,1.2,1.8,1.4c8.9,2.3,16.5,8.6,20.5,16.8c3.3,6.7,4.1,14.7,2.3,21.9c-0.2,0.7,0,1.6,0.5,2.3
	c0.5,0.7,1.2,1.1,1.9,1.2c1.6,0.5,3.3-0.4,3.7-1.8C489.1,310.7,486.7,298.4,479.9,289.4z"/>
<path class="st1" d="M467.5,318.3c0.5,0.7,1.2,1.2,2,1.4c0.8,0.2,1.6,0.1,2.3-0.3c0.7-0.4,1.2-1,1.4-1.7c1.9-6.8,0.4-14.5-3.7-20.1
	c-3.5-4.7-8.6-8-13.9-9.1c-0.2,0-0.3,0-0.5,0c-1.2,0-1.9,0.8-2.2,1.2c-0.8,1-1,2.4-0.4,3.4c0.4,0.8,1.2,1.5,2.3,1.7
	c4.8,1.2,8.9,4.5,11,8.8c1.9,3.8,2.4,8.2,1.3,12.4C466.9,316.8,467.1,317.6,467.5,318.3z"/>
</svg>
