<?xml version="1.0" encoding="utf-8"?>
<!-- Generator: Adobe Illustrator 16.0.4, SVG Export Plug-In . SVG Version: 6.00 Build 0)  -->
<!DOCTYPE svg PUBLIC "-//W3C//DTD SVG 1.1//EN" "http://www.w3.org/Graphics/SVG/1.1/DTD/svg11.dtd">
<svg version="1.1" xmlns="http://www.w3.org/2000/svg" xmlns:xlink="http://www.w3.org/1999/xlink" x="0px" y="0px"
	 width="595.28px" height="841.89px" viewBox="0 0 595.28 841.89" enable-background="new 0 0 595.28 841.89" xml:space="preserve">
<g id="Ebene_1">
</g>
<g id="circles">
	<circle fill="#FFFFFF" cx="383.51" cy="392.815" r="108.788"/>
	<path fill="#0071BB" d="M383.509,505.375c-62.065,0-112.558-50.494-112.558-112.56s50.492-112.56,112.558-112.56
		s112.56,50.494,112.56,112.56S445.574,505.375,383.509,505.375z M383.509,287.796c-57.907,0-105.017,47.112-105.017,105.019
		s47.11,105.02,105.017,105.02s105.019-47.112,105.019-105.02S441.416,287.796,383.509,287.796z"/>
	<path fill="#0071BB" d="M210.786,281.513c-61.374,0-111.303,49.93-111.303,111.303s49.93,111.304,111.303,111.304
		c61.373,0,111.303-49.931,111.303-111.304S272.159,281.513,210.786,281.513z"/>
</g>
<g id="circle_borders">
	<g opacity="0.3">
		<g>
			<path fill="#FFFFFF" d="M305.581,472.282c-0.604-0.595-1.203-1.193-1.797-1.797c-20.365-20.909-31.576-48.491-31.576-77.67
				c0-29.735,11.577-57.685,32.598-78.7l3.554,3.554c-20.071,20.066-31.125,46.753-31.125,75.146
				c0,27.863,10.705,54.196,30.143,74.155c0.564,0.574,1.144,1.153,1.729,1.728L305.581,472.282z"/>
		</g>
	</g>
	<g opacity="0.3">
		<g>
			<path fill="#FFFFFF" d="M291.771,339.168l-4.351-2.516c0.427-0.739,0.867-1.468,1.312-2.197
				c15.305-24.851,39.313-42.454,67.613-49.577c28.829-7.252,58.762-2.85,84.274,12.401l-2.577,4.315
				c-24.364-14.562-52.943-18.769-80.47-11.841c-27.021,6.802-49.947,23.61-64.555,47.33
				C292.599,337.769,292.179,338.464,291.771,339.168z"/>
		</g>
	</g>
	<g opacity="0.3">
		<g>
			<path fill="#FFFFFF" d="M484.104,358.529c-9.156-26.864-28.226-48.559-53.7-61.089c-25-12.289-53.358-14.3-79.85-5.669
				c-0.758,0.254-1.529,0.513-2.295,0.788l-1.693-4.735c0.8-0.285,1.605-0.556,2.413-0.826c27.754-9.049,57.455-6.943,83.644,5.931
				c26.68,13.124,46.65,35.845,56.238,63.98L484.104,358.529z"/>
		</g>
	</g>
	<g opacity="0.3">
		<g>
			<path fill="#FFFFFF" d="M493.952,406.623L488.965,406c3.52-28.165-4.137-56.017-21.557-78.432
				c-17.106-21.991-41.727-36.208-69.321-40.03c-0.812-0.107-1.605-0.21-2.401-0.296l0.535-4.998
				c0.832,0.088,1.665,0.196,2.499,0.306c28.958,4.011,54.741,18.9,72.655,41.933C489.622,347.957,497.64,377.128,493.952,406.623z"
				/>
		</g>
	</g>
	<g opacity="0.3">
		<g>
			<path fill="#FFFFFF" d="M383.506,504.165c-14.129,0-28.253-2.717-41.709-8.154c-27.563-11.144-49.137-32.354-60.748-59.719
				l4.627-1.964c11.087,26.13,31.687,46.381,58.005,57.023c25.825,10.433,54.26,10.379,80.046-0.164
				c0.741-0.307,1.487-0.616,2.229-0.945l2.042,4.591c-0.78,0.349-1.566,0.677-2.356,1.004
				C412.063,501.389,397.782,504.165,383.506,504.165z"/>
		</g>
	</g>
	<g opacity="0.3">
		<g>
			<path fill="#FFFFFF" d="M391.997,503.797l-0.384-5.012c28.3-2.168,54.068-15.225,72.56-36.766
				c18.135-21.145,27.158-48.102,25.403-75.905c-0.052-0.805-0.108-1.61-0.185-2.413l5.003-0.477
				c0.081,0.857,0.143,1.711,0.198,2.57c1.837,29.122-7.611,57.353-26.605,79.499C448.623,487.854,421.634,501.526,391.997,503.797z
				"/>
		</g>
	</g>
	<g opacity="0.3">
		<g>
			<path fill="#FFFFFF" d="M210.714,502c-16.028,0-31.981-3.566-46.839-10.641c-26.325-12.531-46.191-34.562-55.941-62.033
				l4.738-1.68c9.3,26.203,28.252,47.221,53.364,59.172c24.642,11.735,52.443,13.351,78.278,4.563
				c0.75-0.258,1.499-0.519,2.236-0.796l1.762,4.708c-0.784,0.292-1.577,0.572-2.376,0.845C234.43,500.054,222.552,502,210.714,502z
				"/>
		</g>
	</g>
	<g opacity="0.3">
		<g>
			<path fill="#FFFFFF" d="M120.553,454.211c-0.469-0.688-0.931-1.382-1.386-2.082c-15.55-24.023-21.018-52.701-15.399-80.754
				c5.734-28.587,22.249-53.228,46.504-69.385l2.786,4.183c-23.137,15.414-38.891,38.921-44.361,66.189
				c-5.36,26.763-0.144,54.119,14.685,77.031c0.434,0.663,0.875,1.328,1.324,1.985L120.553,454.211z"/>
		</g>
	</g>
	<g opacity="0.3">
		<g>
			<path fill="#FFFFFF" d="M107.261,381.779l-5.002-0.5c0.083-0.83,0.184-1.659,0.287-2.492c3.685-28.385,18.067-53.791,40.5-71.553
				c22.866-18.09,51.396-26.207,80.348-22.823l-0.582,4.993c-27.618-3.216-54.834,4.517-76.646,21.772
				c-21.399,16.943-35.12,41.179-38.634,68.244C107.436,380.199,107.34,380.989,107.261,381.779z"/>
		</g>
	</g>
	<g opacity="0.3">
		<g>
			<path fill="#FFFFFF" d="M122.528,337.595l-4.283-2.634c0.439-0.713,0.893-1.42,1.353-2.123
				c15.728-23.907,39.776-40.456,67.72-46.61c28.465-6.266,57.674-1.07,82.239,14.627l-2.708,4.237
				c-23.433-14.979-51.292-19.929-78.451-13.955c-26.656,5.87-49.596,21.659-64.595,44.456
				C123.372,336.251,122.942,336.918,122.528,337.595z"/>
		</g>
	</g>
	<g opacity="0.3">
		<g>
			<path fill="#FFFFFF" d="M210.889,501.961c-1.594,0-3.193-0.034-4.796-0.104l0.216-5.021c27.8,1.21,54.367-8.503,74.862-27.301
				c20.108-18.454,32.028-43.624,33.562-70.873c0.041-0.783,0.078-1.574,0.096-2.366l5.026,0.123
				c-0.021,0.842-0.059,1.682-0.105,2.521c-1.605,28.57-14.102,54.955-35.181,74.299
				C264.266,491.86,238.262,501.961,210.889,501.961z"/>
		</g>
	</g>
	<g opacity="0.3">
		<g>
			<path fill="#FFFFFF" d="M312.621,432.077l-4.693-1.807c9.998-25.942,9.298-54.232-1.966-79.66
				c-11.071-24.949-31.115-44.279-56.442-54.433c-0.732-0.291-1.475-0.579-2.218-0.852l1.73-4.721
				c0.785,0.288,1.569,0.593,2.349,0.902c26.56,10.648,47.572,30.914,59.175,57.065
				C322.366,375.228,323.098,404.883,312.621,432.077z"/>
		</g>
	</g>
</g>
<g id="MZ">
	<path opacity="0.8" fill="#0071BB" d="M438.431,341.673c0-7.05-5.714-12.764-12.769-12.764h-84.312
		c-7.05,0-12.765,5.714-12.765,12.764c0,7.047,5.715,12.764,12.765,12.764h84.312C432.717,354.438,438.431,348.721,438.431,341.673z
		 M332.499,341.673c0-4.684,3.795-8.479,8.473-8.479c4.684,0,8.479,3.795,8.479,8.479c0,4.676-3.795,8.473-8.479,8.473
		C336.294,350.146,332.499,346.349,332.499,341.673z M417.12,341.673c0-4.684,3.8-8.479,8.479-8.479
		c4.678,0,8.473,3.795,8.473,8.479c0,4.676-3.795,8.473-8.473,8.473C420.92,350.146,417.12,346.349,417.12,341.673z"/>
	<path opacity="0.8" fill="#0071BB" d="M438.431,443.246c0-7.05-5.714-12.77-12.769-12.77h-84.312c-7.05,0-12.765,5.72-12.765,12.77
		c0,7.045,5.715,12.762,12.765,12.762h84.312C432.717,456.008,438.431,450.291,438.431,443.246z M332.499,443.246
		c0-4.681,3.795-8.474,8.473-8.474c4.684,0,8.479,3.793,8.479,8.474c0,4.679-3.795,8.474-8.479,8.474
		C336.294,451.72,332.499,447.925,332.499,443.246z M417.12,443.246c0-4.681,3.8-8.474,8.479-8.474c4.678,0,8.473,3.793,8.473,8.474
		c0,4.679-3.795,8.474-8.473,8.474C420.92,451.72,417.12,447.925,417.12,443.246z"/>
	<path opacity="0.8" fill="#0071BB" d="M434.69,332.65c-4.983-4.985-13.063-4.985-18.052,0l-84.312,101.568
		c-4.983,4.988-4.983,13.068,0,18.052c4.982,4.982,13.068,4.982,18.051,0l84.312-101.568
		C439.678,345.713,439.678,337.633,434.69,332.65z M335.096,449.503c-3.313-3.309-3.313-8.675,0-11.983
		c3.309-3.309,8.675-3.309,11.983,0s3.309,8.675,0,11.983C343.766,452.816,338.399,452.816,335.096,449.503z M419.629,347.714
		c-3.31-3.311-3.31-8.674,0-11.986c3.309-3.309,8.674-3.309,11.983-0.002c3.309,3.314,3.309,8.677,0,11.988
		C428.303,351.023,422.938,351.023,419.629,347.714z"/>
	<g>
		<path opacity="0.5" fill="#FFFFFF" d="M162.133,328.62c-7.047,0-12.759,5.712-12.759,12.759v101.575
			c0,7.047,5.712,12.767,12.759,12.767c7.048,0,12.767-5.72,12.767-12.767V341.379C174.9,334.332,169.182,328.62,162.133,328.62z
			 M162.133,451.808c-4.68,0-8.471-3.792-8.471-8.476c0-4.686,3.791-8.479,8.471-8.479s8.477,3.793,8.477,8.479
			C170.61,448.016,166.813,451.808,162.133,451.808z M162.133,349.931c-4.68,0-8.471-3.802-8.471-8.483
			c0-4.678,3.791-8.473,8.471-8.473s8.477,3.795,8.477,8.473C170.61,346.128,166.813,349.931,162.133,349.931z"/>
		<path opacity="0.5" fill="#FFFFFF" d="M153.109,332.65c-4.984,4.983-4.984,13.063,0.004,18.046l50.85,50.851
			c4.985,4.985,13.067,4.988,18.049,0.005c4.984-4.983,4.984-13.068,0-18.052l-50.85-50.85
			C166.176,327.665,158.094,327.665,153.109,332.65z M219.247,398.785c-3.31,3.312-8.675,3.312-11.985,0
			c-3.309-3.311-3.312-8.675,0-11.986c3.31-3.309,8.675-3.309,11.985,0C222.556,390.11,222.556,395.477,219.247,398.785z
			 M168.178,347.714c-3.31,3.312-8.678,3.309-11.984,0c-3.309-3.311-3.312-8.674-0.004-11.988c3.31-3.306,8.678-3.306,11.988,0.002
			C171.487,339.04,171.487,344.403,168.178,347.714z"/>
		<path opacity="0.5" fill="#FFFFFF" d="M273.468,332.65c-4.981-4.985-13.067-4.985-18.049,0l-50.854,50.85
			c-4.981,4.983-4.984,13.064,0,18.047c4.984,4.985,13.067,4.985,18.049,0l50.854-50.851
			C278.453,345.713,278.453,337.633,273.468,332.65z M207.332,398.785c-3.31-3.311-3.31-8.677,0-11.986
			c3.309-3.309,8.674-3.314,11.983,0c3.309,3.309,3.309,8.675,0,11.986C216.006,402.097,210.641,402.097,207.332,398.785z
			 M258.4,347.714c-3.31-3.311-3.306-8.674,0.002-11.988c3.31-3.306,8.675-3.309,11.989,0c3.305,3.314,3.305,8.677-0.004,11.988
			C267.078,351.023,261.709,351.023,258.4,347.714z"/>
		<path opacity="0.5" fill="#FFFFFF" d="M264.444,328.909c-7.047,0-12.763,5.714-12.763,12.764v101.573
			c0,7.045,5.715,12.762,12.763,12.762s12.759-5.717,12.759-12.762V341.673C277.203,334.624,271.491,328.909,264.444,328.909z
			 M264.444,452.1c-4.684,0-8.473-3.802-8.473-8.48c0-4.681,3.79-8.474,8.473-8.474c4.676,0,8.471,3.793,8.471,8.474
			C272.915,448.298,269.12,452.1,264.444,452.1z M264.444,350.215c-4.684,0-8.473-3.792-8.473-8.476c0-4.681,3.79-8.476,8.473-8.476
			c4.676,0,8.471,3.795,8.471,8.476C272.915,346.423,269.12,350.215,264.444,350.215z"/>
	</g>
</g>
<g id="MZ_borders">
	<g>
		<g>
			<path fill="#FFFFFF" d="M425.662,355.38h-84.312c-7.559,0-13.707-6.149-13.707-13.707c0-7.558,6.148-13.707,13.707-13.707h84.312
				c7.561,0,13.712,6.149,13.712,13.707C439.374,349.231,433.223,355.38,425.662,355.38z M341.351,329.852
				c-6.52,0-11.822,5.303-11.822,11.822c0,6.52,5.303,11.821,11.822,11.821h84.312c6.521,0,11.826-5.302,11.826-11.821
				c0-6.519-5.305-11.822-11.826-11.822H341.351z M425.599,351.089c-5.194,0-9.421-4.225-9.421-9.416
				c0-5.195,4.227-9.421,9.421-9.421c5.191,0,9.415,4.226,9.415,9.421C435.014,346.865,430.79,351.089,425.599,351.089z
				 M425.599,334.138c-4.156,0-7.536,3.38-7.536,7.536c0,4.153,3.38,7.531,7.536,7.531c4.153,0,7.53-3.377,7.53-7.531
				C433.129,337.518,429.752,334.138,425.599,334.138z M340.972,351.089c-5.191,0-9.415-4.225-9.415-9.416
				c0-5.195,4.224-9.421,9.415-9.421c5.194,0,9.421,4.226,9.421,9.421C350.393,346.865,346.166,351.089,340.972,351.089z
				 M340.972,334.138c-4.153,0-7.53,3.38-7.53,7.536c0,4.153,3.377,7.531,7.53,7.531c4.156,0,7.536-3.377,7.536-7.531
				C348.508,337.518,345.128,334.138,340.972,334.138z"/>
		</g>
	</g>
	<g>
		<g>
			<path fill="#FFFFFF" d="M425.662,456.95h-84.312c-7.559,0-13.707-6.148-13.707-13.704c0-7.561,6.148-13.712,13.707-13.712h84.312
				c7.561,0,13.712,6.151,13.712,13.712C439.374,450.802,433.223,456.95,425.662,456.95z M341.351,431.42
				c-6.52,0-11.822,5.305-11.822,11.826c0,6.518,5.303,11.819,11.822,11.819h84.312c6.521,0,11.826-5.302,11.826-11.819
				c0-6.521-5.305-11.826-11.826-11.826H341.351z M425.599,452.662c-5.194,0-9.421-4.225-9.421-9.416s4.227-9.416,9.421-9.416
				c5.191,0,9.415,4.225,9.415,9.416S430.79,452.662,425.599,452.662z M425.599,435.715c-4.156,0-7.536,3.378-7.536,7.531
				s3.38,7.531,7.536,7.531c4.153,0,7.53-3.378,7.53-7.531S429.752,435.715,425.599,435.715z M340.972,452.662
				c-5.191,0-9.415-4.225-9.415-9.416s4.224-9.416,9.415-9.416c5.194,0,9.421,4.225,9.421,9.416S346.166,452.662,340.972,452.662z
				 M340.972,435.715c-4.153,0-7.53,3.378-7.53,7.531s3.377,7.531,7.53,7.531c4.156,0,7.536-3.378,7.536-7.531
				S345.128,435.715,340.972,435.715z"/>
		</g>
	</g>
	<g>
		<g>
			<path fill="#FFFFFF" d="M341.353,456.95c-3.662,0-7.104-1.426-9.693-4.013c-5.341-5.344-5.341-14.039,0-19.385l84.256-101.505
				c2.648-2.653,6.09-4.079,9.752-4.079c3.66,0,7.102,1.425,9.69,4.015c2.59,2.587,4.017,6.029,4.017,9.69
				c0,3.662-1.427,7.104-4.017,9.696l-84.255,101.502C348.456,455.524,345.015,456.95,341.353,456.95z M425.667,329.854
				c-3.159,0-6.127,1.23-8.363,3.462l-84.253,101.503c-4.664,4.676-4.664,12.178-0.057,16.782c2.231,2.234,5.199,3.464,8.358,3.464
				s6.127-1.229,8.358-3.464L433.966,350.1c2.293-2.3,3.522-5.268,3.522-8.427c0-3.157-1.229-6.125-3.463-8.357
				C431.791,331.083,428.823,329.854,425.667,329.854z M341.083,452.93c-2.514,0-4.878-0.979-6.655-2.762
				c-1.779-1.777-2.761-4.141-2.761-6.656c0-2.517,0.981-4.881,2.764-6.66c1.777-1.777,4.141-2.756,6.657-2.756
				c2.516,0,4.879,0.979,6.659,2.756c1.777,1.779,2.757,4.144,2.757,6.66c0,2.516-0.979,4.879-2.757,6.659
				C345.965,451.95,343.599,452.93,341.083,452.93z M341.088,435.98c-2.014,0-3.903,0.783-5.324,2.207
				c-1.427,1.421-2.212,3.313-2.212,5.324c0,2.01,0.785,3.902,2.209,5.323c2.845,2.853,7.806,2.853,10.651,0
				c1.423-1.421,2.206-3.311,2.206-5.323c0-2.014-0.783-3.903-2.206-5.324C344.99,436.764,343.101,435.98,341.088,435.98z
				 M425.62,351.138c-2.516,0-4.88-0.979-6.659-2.756c-3.667-3.672-3.667-9.648,0-13.32c3.562-3.558,9.765-3.556,13.316-0.002
				c3.67,3.675,3.67,9.65,0.002,13.32C430.5,350.159,428.137,351.138,425.62,351.138z M425.62,334.189
				c-2.01,0-3.902,0.783-5.324,2.206c-2.936,2.937-2.936,7.716,0,10.654c2.843,2.843,7.806,2.845,10.648-0.002
				c2.936-2.936,2.936-7.716,0-10.654C429.523,334.971,427.633,334.189,425.62,334.189z"/>
		</g>
	</g>
	<g>
		<g>
			<path fill="#FFFFFF" d="M162.133,456.349c-7.382,0-13.388-6.009-13.388-13.395V341.379c0-7.383,6.005-13.388,13.388-13.388
				c7.386,0,13.395,6.005,13.395,13.388v101.575C175.528,450.34,169.52,456.349,162.133,456.349z M162.133,329.248
				c-6.689,0-12.131,5.442-12.131,12.131v101.575c0,6.693,5.442,12.138,12.131,12.138c6.693,0,12.138-5.444,12.138-12.138V341.379
				C174.271,334.69,168.826,329.248,162.133,329.248z M162.133,452.437c-5.017,0-9.099-4.085-9.099-9.104
				c0-5.022,4.082-9.106,9.099-9.106c5.021,0,9.105,4.084,9.105,9.106C171.239,448.352,167.154,452.437,162.133,452.437z
				 M162.133,435.482c-4.324,0-7.842,3.522-7.842,7.85s3.519,7.848,7.842,7.848c4.328,0,7.849-3.521,7.849-7.848
				S166.461,435.482,162.133,435.482z M162.133,350.559c-5.017,0-9.099-4.087-9.099-9.112c0-5.019,4.082-9.102,9.099-9.102
				c5.021,0,9.105,4.083,9.105,9.102C171.239,346.472,167.154,350.559,162.133,350.559z M162.133,333.603
				c-4.324,0-7.842,3.519-7.842,7.845c0,4.33,3.519,7.855,7.842,7.855c4.328,0,7.849-3.525,7.849-7.855
				C169.982,337.121,166.461,333.603,162.133,333.603z"/>
		</g>
	</g>
	<g>
		<g>
			<path fill="#FFFFFF" d="M212.992,405.916c-3.579,0-6.943-1.395-9.474-3.925l-50.85-50.851c-2.531-2.528-3.925-5.891-3.925-9.467
				c-0.001-3.577,1.392-6.939,3.921-9.468c2.53-2.529,5.894-3.922,9.471-3.922c3.577,0,6.94,1.393,9.47,3.922l50.85,50.851
				c2.529,2.528,3.922,5.891,3.922,9.47s-1.393,6.942-3.922,9.47C219.929,404.524,216.569,405.916,212.992,405.916z M162.136,329.54
				c-3.243,0-6.29,1.262-8.583,3.554c-2.292,2.292-3.554,5.337-3.553,8.579c0,3.24,1.263,6.289,3.557,8.579l50.851,50.851
				c2.294,2.292,5.342,3.557,8.585,3.557c3.24,0,6.285-1.262,8.575-3.552c2.292-2.29,3.555-5.339,3.555-8.582
				s-1.263-6.291-3.555-8.582l-50.85-50.85C168.425,330.802,165.377,329.54,162.136,329.54z M213.254,401.897
				c-2.43,0-4.717-0.947-6.437-2.668c-3.549-3.552-3.549-9.328,0-12.875c1.72-1.718,4.006-2.666,6.437-2.666
				c2.431,0,4.718,0.947,6.437,2.666c3.548,3.552,3.548,9.325,0,12.875C217.972,400.95,215.685,401.897,213.254,401.897z
				 M213.254,384.946c-2.095,0-4.065,0.815-5.548,2.298c-3.059,3.058-3.059,8.037,0,11.097c1.483,1.483,3.453,2.3,5.548,2.3
				c2.096,0,4.066-0.817,5.548-2.3c3.059-3.059,3.059-8.036,0-11.097C217.32,385.761,215.35,384.946,213.254,384.946z
				 M162.185,350.824c-2.432,0-4.718-0.945-6.436-2.666c-3.547-3.549-3.55-9.326-0.004-12.877c1.72-1.718,4.006-2.663,6.438-2.663
				c2.433,0,4.72,0.946,6.439,2.666c3.547,3.549,3.547,9.325,0,12.875C166.903,349.879,164.618,350.824,162.185,350.824z
				 M162.183,333.875c-2.097,0-4.067,0.815-5.549,2.295c-3.056,3.06-3.054,8.039,0.004,11.1c1.481,1.483,3.451,2.298,5.547,2.298
				s4.067-0.815,5.548-2.298c3.058-3.058,3.058-8.038,0-11.097C166.251,334.691,164.28,333.875,162.183,333.875z"/>
		</g>
	</g>
	<g>
		<g>
			<path fill="#FFFFFF" d="M213.591,405.914c-3.578,0-6.94-1.392-9.47-3.922c-2.529-2.528-3.921-5.892-3.921-9.468
				s1.393-6.939,3.921-9.467l50.854-50.851c2.528-2.529,5.891-3.924,9.469-3.924s6.94,1.395,9.469,3.924
				c2.53,2.528,3.922,5.891,3.922,9.468c0,3.576-1.393,6.939-3.922,9.467l-50.854,50.851
				C220.53,404.521,217.169,405.914,213.591,405.914z M264.444,329.539c-3.243,0-6.289,1.263-8.58,3.556l-50.854,50.85
				c-2.292,2.293-3.553,5.339-3.553,8.579s1.262,6.289,3.553,8.579c2.292,2.292,5.339,3.554,8.582,3.554
				c3.241,0,6.288-1.262,8.579-3.554l50.854-50.851c2.292-2.29,3.554-5.339,3.554-8.579c0-3.242-1.263-6.288-3.554-8.579
				C270.732,330.802,267.687,329.539,264.444,329.539z M213.324,401.897c-2.432,0-4.718-0.947-6.436-2.668
				c-3.55-3.552-3.55-9.328,0-12.875c1.721-1.721,4.007-2.668,6.438-2.668c2.431,0,4.716,0.948,6.434,2.668
				c3.548,3.549,3.548,9.323,0,12.875C218.042,400.95,215.755,401.897,213.324,401.897z M213.326,384.943
				c-2.096,0-4.067,0.817-5.55,2.3c-3.06,3.058-3.06,8.037,0,11.097c1.481,1.483,3.452,2.3,5.547,2.3c2.095,0,4.066-0.817,5.547-2.3
				c3.059-3.061,3.059-8.039,0-11.097C217.39,385.761,215.421,384.943,213.326,384.943z M264.394,350.824
				c-2.433,0-4.718-0.948-6.438-2.666c-3.547-3.547-3.545-9.324,0.003-12.877c1.721-1.718,4.007-2.665,6.438-2.665
				c2.431,0,4.718,0.946,6.438,2.665c3.543,3.553,3.542,9.33-0.004,12.877C269.113,349.876,266.826,350.824,264.394,350.824z
				 M264.397,333.874c-2.097,0-4.067,0.815-5.55,2.296c-3.057,3.062-3.058,8.042-0.002,11.1c1.481,1.483,3.453,2.298,5.549,2.298
				s4.067-0.815,5.55-2.298c3.056-3.058,3.058-8.038,0.002-11.1C268.465,334.688,266.492,333.874,264.397,333.874z"/>
		</g>
	</g>
	<g>
		<g>
			<path fill="#FFFFFF" d="M264.444,456.636c-7.383,0-13.391-6.006-13.391-13.39V341.673c0-7.385,6.008-13.393,13.391-13.393
				c7.382,0,13.388,6.008,13.388,13.393v101.573C277.832,450.63,271.826,456.636,264.444,456.636z M264.444,329.538
				c-6.691,0-12.134,5.444-12.134,12.136v101.573c0,6.691,5.443,12.133,12.134,12.133c6.689,0,12.131-5.441,12.131-12.133V341.673
				C276.575,334.982,271.133,329.538,264.444,329.538z M264.444,452.729c-5.019,0-9.102-4.087-9.102-9.109
				c0-5.02,4.083-9.102,9.102-9.102c5.017,0,9.099,4.082,9.099,9.102C273.543,448.642,269.461,452.729,264.444,452.729z
				 M264.444,435.774c-4.326,0-7.845,3.52-7.845,7.845c0,4.33,3.519,7.853,7.845,7.853c4.324,0,7.843-3.522,7.843-7.853
				C272.287,439.294,268.768,435.774,264.444,435.774z M264.444,350.844c-5.019,0-9.102-4.084-9.102-9.104
				c0-5.02,4.083-9.104,9.102-9.104c5.017,0,9.099,4.084,9.099,9.104C273.543,346.759,269.461,350.844,264.444,350.844z
				 M264.444,333.892c-4.326,0-7.845,3.52-7.845,7.847c0,4.328,3.519,7.848,7.845,7.848c4.324,0,7.843-3.52,7.843-7.848
				C272.287,337.412,268.768,333.892,264.444,333.892z"/>
		</g>
	</g>
</g>
<g id="text">
	<g>
		<path fill="#0071BB" d="M148.746,559.957v-34.312c0-0.363,0.065-0.707,0.197-1.025c0.134-0.322,0.317-0.6,0.557-0.843
			c0.239-0.235,0.514-0.422,0.827-0.552c0.314-0.138,0.659-0.201,1.04-0.201c1.022,0,1.795,0.469,2.323,1.409l14.833,29.642
			l14.832-29.642c0.593-0.94,1.367-1.409,2.323-1.409c0.363,0,0.703,0.063,1.023,0.201c0.323,0.13,0.604,0.316,0.843,0.552
			c0.239,0.243,0.423,0.521,0.557,0.843c0.13,0.318,0.197,0.662,0.197,1.025v34.312c0,0.727-0.255,1.345-0.766,1.855
			c-0.509,0.508-1.13,0.766-1.854,0.766c-0.725,0-1.344-0.258-1.853-0.766c-0.513-0.511-0.769-1.129-0.769-1.855v-23.187
			l-12.26,24.499c-0.509,0.872-1.269,1.309-2.274,1.309c-1.089,0-1.888-0.525-2.399-1.58l-12.137-24.228v23.187
			c0,0.727-0.256,1.345-0.766,1.855c-0.513,0.508-1.129,0.766-1.854,0.766c-0.726,0-1.345-0.258-1.854-0.766
			C149.001,561.302,148.746,560.684,148.746,559.957z"/>
		<path fill="#0071BB" d="M190.427,558.771l13.199-33.965c0.528-1.188,1.36-1.782,2.498-1.782c1.171,0,2.003,0.594,2.498,1.782
			l13.249,34.09c0.132,0.331,0.199,0.683,0.199,1.061c0,0.727-0.255,1.345-0.766,1.855c-0.512,0.508-1.128,0.766-1.854,0.766
			s-1.335-0.258-1.831-0.766c-0.261-0.263-0.46-0.543-0.59-0.84l-4.575-11.745h-12.656l-4.599,11.745
			c-0.131,0.297-0.33,0.577-0.59,0.84c-0.513,0.508-1.129,0.766-1.857,0.766c-0.726,0-1.337-0.258-1.84-0.766
			c-0.504-0.511-0.756-1.129-0.756-1.855C190.153,559.564,190.245,559.166,190.427,558.771z M210.425,543.986l-4.302-11.097
			l-4.301,11.097H210.425z"/>
		<path fill="#0071BB" d="M223.677,525.646c0-0.724,0.256-1.343,0.768-1.855c0.507-0.508,1.128-0.766,1.853-0.766
			c0.724,0,1.344,0.258,1.853,0.766c0.513,0.513,0.768,1.132,0.768,1.855v14.633l16.437-16.435c0.546-0.547,1.182-0.819,1.906-0.819
			c0.36,0,0.705,0.063,1.024,0.201c0.321,0.13,0.601,0.316,0.844,0.552c0.237,0.243,0.422,0.521,0.556,0.843
			c0.127,0.318,0.197,0.662,0.197,1.025c0,0.727-0.258,1.343-0.768,1.854l-12.953,12.978l13.223,17.922
			c0.33,0.461,0.498,0.959,0.498,1.484c0,0.349-0.07,0.686-0.197,1.017c-0.134,0.329-0.315,0.616-0.547,0.864
			c-0.231,0.245-0.502,0.441-0.812,0.594c-0.315,0.147-0.654,0.221-1.015,0.221c-0.976,0-1.705-0.373-2.202-1.114l-12.707-17.227
			l-3.483,3.483v12.236c0,0.727-0.255,1.345-0.768,1.855c-0.509,0.508-1.129,0.766-1.853,0.766c-0.725,0-1.345-0.258-1.853-0.766
			c-0.512-0.511-0.768-1.129-0.768-1.855V525.646z"/>
		<path fill="#0071BB" d="M276.825,557.335c0.73,0,1.346,0.258,1.858,0.769c0.508,0.511,0.764,1.129,0.764,1.854
			c0,0.727-0.255,1.345-0.764,1.855c-0.512,0.508-1.128,0.766-1.858,0.766h-22.864c-0.379,0-0.724-0.068-1.039-0.198
			c-0.312-0.133-0.586-0.317-0.83-0.556c-0.235-0.24-0.422-0.515-0.555-0.826c-0.129-0.314-0.199-0.661-0.199-1.041v-34.312
			c0-0.363,0.07-0.707,0.199-1.025c0.133-0.322,0.319-0.6,0.555-0.843c0.243-0.235,0.518-0.422,0.83-0.552
			c0.314-0.138,0.659-0.201,1.039-0.201h22.864c0.73,0,1.346,0.258,1.858,0.766c0.508,0.513,0.764,1.132,0.764,1.855
			c0,0.727-0.255,1.343-0.764,1.854c-0.512,0.511-1.128,0.769-1.858,0.769h-20.242v11.914h14.534c0.729,0,1.345,0.256,1.857,0.764
			c0.508,0.514,0.764,1.129,0.764,1.858c0,0.724-0.255,1.34-0.764,1.854c-0.512,0.511-1.128,0.763-1.857,0.763h-14.534v11.915
			H276.825z"/>
	</g>
	<g>
		<g>
			<path fill="#004574" d="M278.136,523.024h26.704c0.358,0,0.704,0.063,1.023,0.201c0.321,0.13,0.602,0.316,0.84,0.552
				c0.24,0.243,0.427,0.521,0.557,0.843c0.133,0.318,0.196,0.662,0.196,1.025c0,0.545-0.164,1.056-0.493,1.532l-23.461,30.157
				h21.338c0.739,0.018,1.359,0.28,1.863,0.796c0.501,0.508,0.753,1.126,0.753,1.853c0,0.725-0.252,1.338-0.753,1.841
				c-0.504,0.504-1.114,0.754-1.839,0.754h-26.729c-0.378,0-0.724-0.068-1.033-0.198c-0.315-0.133-0.592-0.317-0.829-0.556
				c-0.241-0.24-0.428-0.515-0.557-0.826c-0.132-0.314-0.2-0.661-0.2-1.041c0.019-0.626,0.2-1.171,0.546-1.633l23.411-30.057
				h-21.338c-0.708,0-1.319-0.258-1.836-0.769c-0.523-0.511-0.783-1.127-0.783-1.854c0-0.724,0.26-1.343,0.783-1.855
				C276.816,523.282,277.428,523.024,278.136,523.024z"/>
			<path fill="#004574" d="M314.31,525.646v22.868c0,1.202,0.231,2.342,0.688,3.409c0.464,1.072,1.09,2.008,1.883,2.808
				c0.788,0.798,1.721,1.434,2.793,1.9c1.068,0.471,2.22,0.704,3.435,0.704c1.223,0,2.366-0.228,3.438-0.689
				c1.07-0.464,2.006-1.095,2.806-1.902c0.798-0.81,1.427-1.743,1.891-2.809c0.461-1.062,0.689-2.204,0.689-3.421v-22.868
				c0-0.724,0.258-1.343,0.769-1.855c0.511-0.508,1.129-0.766,1.853-0.766c0.725,0,1.346,0.258,1.856,0.766
				c0.508,0.513,0.766,1.132,0.766,1.855v22.868c0,1.286-0.169,2.521-0.508,3.706c-0.334,1.188-0.808,2.305-1.419,3.351
				s-1.346,1.998-2.202,2.854s-1.809,1.593-2.854,2.212c-1.051,0.618-2.168,1.098-3.363,1.434c-1.192,0.339-2.433,0.508-3.721,0.508
				c-3.889,0-7.192-1.377-9.912-4.129c-2.754-2.751-4.129-6.065-4.129-9.936v-22.868c0-0.724,0.258-1.343,0.769-1.855
				c0.508-0.508,1.129-0.766,1.854-0.766c0.724,0,1.345,0.258,1.851,0.766C314.052,524.303,314.31,524.922,314.31,525.646z"/>
			<path fill="#004574" d="M338.662,559.957v-34.312c0-0.363,0.064-0.707,0.196-1.025c0.128-0.322,0.314-0.6,0.558-0.843
				c0.235-0.235,0.511-0.422,0.827-0.552c0.31-0.138,0.655-0.201,1.033-0.201h9.544c1.664,0,3.237,0.321,4.713,0.967
				c1.47,0.641,2.757,1.513,3.856,2.622c1.092,1.102,1.966,2.391,2.606,3.865c0.644,1.476,0.962,3.044,0.962,4.711
				c0,1.085-0.135,2.146-0.407,3.174c-0.272,1.031-0.673,2.003-1.21,2.921c-0.533,0.913-1.205,1.76-2.003,2.543
				s-1.729,1.471-2.784,2.064l7.89,12.632c0.28,0.464,0.42,0.942,0.42,1.434c0,0.38-0.066,0.727-0.199,1.041
				c-0.133,0.312-0.316,0.586-0.555,0.826c-0.238,0.238-0.518,0.423-0.84,0.556c-0.326,0.13-0.665,0.198-1.028,0.198
				c-0.923,0-1.671-0.43-2.246-1.286l-8.726-13.967h-7.371v12.632c0,0.727-0.256,1.345-0.762,1.855
				c-0.515,0.508-1.129,0.766-1.86,0.766c-0.724,0-1.338-0.258-1.854-0.766C338.913,561.302,338.662,560.684,338.662,559.957z
				 M343.898,528.268v13.816h6.922c0.955,0,1.855-0.179,2.695-0.545c0.844-0.357,1.573-0.861,2.187-1.494
				c0.621-0.636,1.109-1.365,1.473-2.199c0.361-0.832,0.543-1.719,0.543-2.656c0-0.957-0.182-1.855-0.543-2.695
				c-0.363-0.84-0.856-1.576-1.479-2.199c-0.629-0.626-1.362-1.124-2.204-1.482c-0.838-0.366-1.731-0.545-2.671-0.545H343.898z"/>
			<path fill="#004574" d="M373.297,559.957c0,0.727-0.258,1.345-0.771,1.855c-0.511,0.508-1.127,0.766-1.851,0.766
				c-0.729,0-1.346-0.258-1.858-0.766c-0.506-0.511-0.764-1.129-0.764-1.855v-34.312c0-0.724,0.258-1.343,0.764-1.855
				c0.513-0.508,1.129-0.766,1.858-0.766c0.724,0,1.34,0.258,1.851,0.766c0.513,0.513,0.771,1.132,0.771,1.855V559.957z"/>
			<path fill="#004574" d="M406.621,553.68c0.358,0,0.697,0.069,1.014,0.209c0.31,0.141,0.585,0.324,0.827,0.555
				c0.236,0.23,0.43,0.511,0.567,0.832c0.14,0.319,0.211,0.66,0.211,1.021c0,0.694-0.27,1.318-0.817,1.88
				c-3.675,2.937-7.817,4.401-12.435,4.401c-5.47,0-10.133-1.93-13.992-5.783c-3.851-3.858-5.785-8.522-5.785-13.991
				c0-5.457,1.935-10.113,5.785-13.97c3.874-3.871,8.537-5.81,13.992-5.81c4.681,0,8.907,1.541,12.681,4.622
				c0.464,0.446,0.694,1.051,0.694,1.807c0,0.38-0.066,0.724-0.194,1.035c-0.137,0.314-0.321,0.59-0.56,0.83
				c-0.24,0.238-0.522,0.425-0.842,0.558c-0.319,0.132-0.658,0.196-1.025,0.196c-0.639,0-1.245-0.246-1.803-0.744
				c-1.256-0.986-2.633-1.742-4.143-2.271c-1.508-0.527-3.107-0.79-4.809-0.79c-4.021,0-7.455,1.424-10.308,4.275
				c-2.815,2.818-4.227,6.237-4.227,10.261c0,4.035,1.411,7.462,4.227,10.282c2.835,2.833,6.271,4.249,10.308,4.249
				c3.446,0,6.478-1.061,9.099-3.186C405.517,553.854,406.025,553.697,406.621,553.68z"/>
			<path fill="#004574" d="M438.836,559.957c0,0.727-0.255,1.345-0.769,1.855c-0.513,0.508-1.129,0.766-1.853,0.766
				c-0.725,0-1.346-0.258-1.854-0.766c-0.511-0.511-0.769-1.129-0.769-1.855V545.42h-17.627v14.537c0,0.727-0.258,1.345-0.761,1.855
				c-0.516,0.508-1.129,0.766-1.86,0.766c-0.725,0-1.338-0.258-1.854-0.766c-0.511-0.511-0.761-1.129-0.761-1.855v-34.312
				c0-0.724,0.25-1.343,0.761-1.855c0.516-0.508,1.129-0.766,1.854-0.766c0.731,0,1.345,0.258,1.86,0.766
				c0.503,0.513,0.761,1.132,0.761,1.855v14.536h17.627v-14.536c0-0.724,0.258-1.343,0.769-1.855
				c0.508-0.508,1.129-0.766,1.854-0.766c0.724,0,1.34,0.258,1.853,0.766c0.514,0.513,0.769,1.132,0.769,1.855V559.957z"/>
		</g>
	</g>
</g>
</svg>
